<ttFont>
    <TTGlyph name="A" xMin="24" yMin="1" xMax="439" yMax="701">
      <contour>
        <pt x="233" y="623" on="1"/>
        <pt x="232" y="623" on="1"/>
        <pt x="212" y="532" on="0"/>
        <pt x="173" y="355" on="0"/>
        <pt x="153" y="264" on="1"/>
        <pt x="310" y="264" on="1"/>
      </contour>
      <contour>
        <pt x="92" y="1" on="1"/>
        <pt x="24" y="1" on="1"/>
        <pt x="184" y="701" on="1"/>
        <pt x="279" y="701" on="1"/>
        <pt x="439" y="1" on="1"/>
        <pt x="372" y="1" on="1"/>
        <pt x="328" y="192" on="1"/>
        <pt x="135" y="192" on="1"/>
      </contour>
    </TTGlyph>
    <TTGlyph name="AE" xMin="11" yMin="1" xMax="691" yMax="700">
      <contour>
        <pt x="200" y="264" on="1"/>
        <pt x="252" y="264" on="0"/>
        <pt x="349" y="263" on="0"/>
        <pt x="400" y="263" on="1"/>
        <pt x="400" y="354" on="0"/>
        <pt x="401" y="531" on="0"/>
        <pt x="401" y="622" on="1"/>
        <pt x="391" y="622" on="0"/>
        <pt x="372" y="623" on="0"/>
        <pt x="361" y="623" on="1"/>
      </contour>
      <contour>
        <pt x="689" y="700" on="1"/>
        <pt x="689" y="630" on="1"/>
        <pt x="467" y="630" on="1"/>
        <pt x="467" y="387" on="1"/>
        <pt x="641" y="387" on="1"/>
        <pt x="641" y="317" on="1"/>
        <pt x="467" y="317" on="1"/>
        <pt x="467" y="72" on="1"/>
        <pt x="691" y="72" on="1"/>
        <pt x="691" y="1" on="1"/>
        <pt x="400" y="1" on="1"/>
        <pt x="400" y="192" on="1"/>
        <pt x="166" y="192" on="1"/>
        <pt x="79" y="1" on="1"/>
        <pt x="11" y="1" on="1"/>
        <pt x="332" y="700" on="1"/>
      </contour>
    </TTGlyph>
    <TTGlyph name="Aacute" xMin="24" yMin="1" xMax="439" yMax="931">
      <component glyphName="A" x="0" y="0" flags="0x1204"/>
      <component glyphName="acute" x="4" y="200" flags="0x1004"/>
    </TTGlyph>
    <TTGlyph name="Acircumflex" xMin="24" yMin="1" xMax="439" yMax="944">
      <component glyphName="A" x="0" y="0" flags="0x1204"/>
      <component glyphName="circumflex" x="36" y="200" flags="0x1004"/>
    </TTGlyph>
    <TTGlyph name="Adieresis" xMin="24" yMin="1" xMax="439" yMax="872">
      <component glyphName="A" x="0" y="0" flags="0x1204"/>
      <component glyphName="dieresis" x="3" y="200" flags="0x1004"/>
    </TTGlyph>
    <TTGlyph name="Agrave" xMin="24" yMin="1" xMax="439" yMax="930">
      <component glyphName="A" x="0" y="0" flags="0x1204"/>
      <component glyphName="grave" x="-7" y="200" flags="0x1004"/>
    </TTGlyph>
    <TTGlyph name="Atilde" xMin="24" yMin="1" xMax="439" yMax="851">
      <component glyphName="A" x="0" y="0" flags="0x1204"/>
      <component glyphName="tilde" x="-14" y="200" flags="0x1004"/>
    </TTGlyph>
    <TTGlyph name="B" xMin="75" yMin="0" xMax="427" yMax="710">
      <contour>
        <pt x="144" y="321" on="1"/>
        <pt x="144" y="71" on="1"/>
        <pt x="261" y="71" on="1"/>
        <pt x="288" y="71" on="0"/>
        <pt x="325" y="90" on="0"/>
        <pt x="347" y="123" on="0"/>
        <pt x="356" y="168" on="0"/>
        <pt x="356" y="193" on="1"/>
        <pt x="356" y="219" on="0"/>
        <pt x="347" y="266" on="0"/>
        <pt x="325" y="301" on="0"/>
        <pt x="288" y="321" on="0"/>
        <pt x="261" y="321" on="1"/>
      </contour>
      <contour>
        <pt x="333" y="514" on="1"/>
        <pt x="331" y="538" on="0"/>
        <pt x="318" y="583" on="0"/>
        <pt x="293" y="618" on="0"/>
        <pt x="257" y="639" on="0"/>
        <pt x="233" y="639" on="1"/>
        <pt x="223" y="639" on="0"/>
        <pt x="182" y="633" on="0"/>
        <pt x="144" y="617" on="1"/>
        <pt x="144" y="391" on="1"/>
        <pt x="238" y="391" on="1"/>
        <pt x="266" y="391" on="0"/>
        <pt x="302" y="411" on="0"/>
        <pt x="324" y="444" on="0"/>
        <pt x="333" y="489" on="0"/>
      </contour>
      <contour>
        <pt x="241" y="710" on="1"/>
        <pt x="274" y="710" on="0"/>
        <pt x="309" y="695" on="0"/>
        <pt x="316" y="690" on="1"/>
        <pt x="317" y="689" on="0"/>
        <pt x="317" y="689" on="1"/>
        <pt x="353" y="667" on="0"/>
        <pt x="407" y="576" on="0"/>
        <pt x="407" y="518" on="1"/>
        <pt x="407" y="496" on="0"/>
        <pt x="404" y="453" on="0"/>
        <pt x="392" y="412" on="0"/>
        <pt x="369" y="373" on="0"/>
        <pt x="349" y="356" on="1"/>
        <pt x="375" y="338" on="0"/>
        <pt x="406" y="300" on="0"/>
        <pt x="422" y="260" on="0"/>
        <pt x="427" y="217" on="0"/>
        <pt x="427" y="193" on="1"/>
        <pt x="428" y="162" on="0"/>
        <pt x="415" y="110" on="0"/>
        <pt x="397" y="71" on="0"/>
        <pt x="379" y="47" on="0"/>
        <pt x="375" y="44" on="1"/>
        <pt x="357" y="27" on="0"/>
        <pt x="303" y="0" on="0"/>
        <pt x="261" y="0" on="1"/>
        <pt x="75" y="0" on="1"/>
        <pt x="75" y="670" on="1"/>
        <pt x="114" y="685" on="0"/>
        <pt x="174" y="702" on="0"/>
        <pt x="186" y="704" on="1"/>
        <pt x="213" y="710" on="0"/>
      </contour>
    </TTGlyph>
    <TTGlyph name="C" xMin="64" yMin="-10" xMax="411" yMax="710">
      <contour>
        <pt x="130" y="191" on="1"/>
        <pt x="130" y="161" on="0"/>
        <pt x="150" y="113" on="0"/>
        <pt x="184" y="79" on="0"/>
        <pt x="229" y="60" on="0"/>
        <pt x="253" y="59" on="1"/>
        <pt x="260" y="59" on="0"/>
        <pt x="274" y="61" on="0"/>
        <pt x="295" y="68" on="0"/>
        <pt x="327" y="80" on="0"/>
        <pt x="352" y="90" on="1"/>
        <pt x="384" y="104" on="1"/>
        <pt x="411" y="35" on="1"/>
        <pt x="324" y="4" on="1"/>
        <pt x="307" y="-2" on="0"/>
        <pt x="267" y="-10" on="0"/>
        <pt x="253" y="-10" on="1"/>
        <pt x="215" y="-10" on="0"/>
        <pt x="146" y="17" on="0"/>
        <pt x="94" y="68" on="0"/>
        <pt x="64" y="141" on="0"/>
        <pt x="64" y="186" on="1"/>
        <pt x="64" y="503" on="1"/>
        <pt x="64" y="544" on="0"/>
        <pt x="94" y="619" on="0"/>
        <pt x="112" y="639" on="1"/>
        <pt x="128" y="658" on="0"/>
        <pt x="153" y="678" on="0"/>
        <pt x="166" y="686" on="1"/>
        <pt x="171" y="688" on="1"/>
        <pt x="168" y="687" on="1"/>
        <pt x="179" y="693" on="0"/>
        <pt x="220" y="710" on="0"/>
        <pt x="255" y="710" on="1"/>
        <pt x="270" y="710" on="0"/>
        <pt x="310" y="700" on="0"/>
        <pt x="325" y="695" on="1"/>
        <pt x="409" y="663" on="1"/>
        <pt x="386" y="598" on="1"/>
        <pt x="294" y="633" on="1"/>
        <pt x="284" y="637" on="0"/>
        <pt x="264" y="643" on="0"/>
        <pt x="256" y="643" on="1"/>
        <pt x="231" y="643" on="0"/>
        <pt x="186" y="619" on="0"/>
        <pt x="152" y="580" on="0"/>
        <pt x="132" y="530" on="0"/>
        <pt x="132" y="503" on="1"/>
      </contour>
    </TTGlyph>
    <TTGlyph name="Ccedilla" xMin="64" yMin="-218" xMax="411" yMax="710">
      <component glyphName="C" x="0" y="0" flags="0x1204"/>
      <component glyphName="cedilla" x="42" y="0" flags="0x1004"/>
    </TTGlyph>
    <TTGlyph name="D" xMin="69" yMin="-10" xMax="413" yMax="710">
      <contour>
        <pt x="69" y="669" on="1"/>
        <pt x="132" y="695" on="0"/>
        <pt x="214" y="710" on="0"/>
        <pt x="228" y="710" on="1"/>
        <pt x="268" y="710" on="0"/>
        <pt x="335" y="677" on="0"/>
        <pt x="385" y="620" on="0"/>
        <pt x="413" y="546" on="0"/>
        <pt x="413" y="504" on="1"/>
        <pt x="413" y="188" on="1"/>
        <pt x="413" y="146" on="0"/>
        <pt x="381" y="73" on="0"/>
        <pt x="327" y="20" on="0"/>
        <pt x="256" y="-10" on="0"/>
        <pt x="217" y="-10" on="1"/>
        <pt x="209" y="-10" on="0"/>
        <pt x="187" y="-8" on="0"/>
        <pt x="152" y="-1" on="0"/>
        <pt x="103" y="14" on="0"/>
        <pt x="69" y="28" on="1"/>
      </contour>
      <contour>
        <pt x="340" y="504" on="1"/>
        <pt x="340" y="546" on="0"/>
        <pt x="302" y="609" on="0"/>
        <pt x="280" y="624" on="1"/>
        <pt x="269" y="632" on="0"/>
        <pt x="239" y="639" on="0"/>
        <pt x="228" y="639" on="1"/>
        <pt x="207" y="639" on="0"/>
        <pt x="158" y="622" on="0"/>
        <pt x="137" y="613" on="1"/>
        <pt x="137" y="82" on="1"/>
        <pt x="172" y="68" on="0"/>
        <pt x="211" y="62" on="0"/>
        <pt x="221" y="62" on="1"/>
        <pt x="225" y="62" on="1"/>
        <pt x="248" y="62" on="0"/>
        <pt x="290" y="84" on="0"/>
        <pt x="323" y="122" on="0"/>
        <pt x="342" y="170" on="0"/>
        <pt x="342" y="197" on="1"/>
      </contour>
    </TTGlyph>
    <TTGlyph name="E" xMin="76" yMin="1" xMax="368" yMax="700">
      <contour>
        <pt x="366" y="700" on="1"/>
        <pt x="366" y="630" on="1"/>
        <pt x="145" y="630" on="1"/>
        <pt x="145" y="387" on="1"/>
        <pt x="318" y="387" on="1"/>
        <pt x="318" y="317" on="1"/>
        <pt x="145" y="317" on="1"/>
        <pt x="145" y="72" on="1"/>
        <pt x="368" y="72" on="1"/>
        <pt x="368" y="1" on="1"/>
        <pt x="76" y="1" on="1"/>
        <pt x="76" y="700" on="1"/>
      </contour>
    </TTGlyph>
    <TTGlyph name="Eacute" xMin="76" yMin="1" xMax="368" yMax="925">
      <component glyphName="E" x="0" y="0" flags="0x1204"/>
      <component glyphName="acute" x="-23" y="194" flags="0x1004"/>
    </TTGlyph>
    <TTGlyph name="Ecircumflex" xMin="58" yMin="1" xMax="368" yMax="944">
      <component glyphName="E" x="0" y="0" flags="0x1204"/>
      <component glyphName="circumflex" x="1" y="200" flags="0x1004"/>
    </TTGlyph>
    <TTGlyph name="Edieresis" xMin="76" yMin="1" xMax="368" yMax="872">
      <component glyphName="E" x="0" y="0" flags="0x1204"/>
      <component glyphName="dieresis" x="-12" y="200" flags="0x1004"/>
    </TTGlyph>
    <TTGlyph name="Egrave" xMin="72" yMin="1" xMax="368" yMax="930">
      <component glyphName="E" x="0" y="0" flags="0x1204"/>
      <component glyphName="grave" x="-14" y="200" flags="0x1004"/>
    </TTGlyph>
    <TTGlyph name="Euro" xMin="41" yMin="0" xMax="414" yMax="660">
      <contour>
        <pt x="414" y="140" on="1"/>
        <pt x="414" y="110" on="0"/>
        <pt x="393" y="59" on="0"/>
        <pt x="356" y="21" on="0"/>
        <pt x="306" y="0" on="0"/>
        <pt x="278" y="0" on="1"/>
        <pt x="246" y="0" on="1"/>
        <pt x="217" y="0" on="0"/>
        <pt x="168" y="21" on="0"/>
        <pt x="132" y="59" on="0"/>
        <pt x="111" y="110" on="0"/>
        <pt x="111" y="140" on="1"/>
        <pt x="111" y="243" on="1"/>
        <pt x="41" y="243" on="1"/>
        <pt x="41" y="300" on="1"/>
        <pt x="111" y="300" on="1"/>
        <pt x="111" y="360" on="1"/>
        <pt x="41" y="360" on="1"/>
        <pt x="41" y="416" on="1"/>
        <pt x="111" y="416" on="1"/>
        <pt x="111" y="519" on="1"/>
        <pt x="111" y="549" on="0"/>
        <pt x="132" y="601" on="0"/>
        <pt x="169" y="638" on="0"/>
        <pt x="218" y="660" on="0"/>
        <pt x="247" y="660" on="1"/>
        <pt x="279" y="660" on="1"/>
        <pt x="307" y="660" on="0"/>
        <pt x="356" y="638" on="0"/>
        <pt x="393" y="601" on="0"/>
        <pt x="414" y="549" on="0"/>
        <pt x="414" y="519" on="1"/>
        <pt x="414" y="490" on="1"/>
        <pt x="351" y="490" on="1"/>
        <pt x="351" y="519" on="1"/>
        <pt x="351" y="555" on="0"/>
        <pt x="300" y="593" on="0"/>
        <pt x="267" y="593" on="1"/>
        <pt x="249" y="593" on="0"/>
        <pt x="215" y="586" on="0"/>
        <pt x="189" y="569" on="0"/>
        <pt x="174" y="540" on="0"/>
        <pt x="174" y="519" on="1"/>
        <pt x="174" y="416" on="1"/>
        <pt x="323" y="416" on="1"/>
        <pt x="323" y="360" on="1"/>
        <pt x="174" y="360" on="1"/>
        <pt x="174" y="300" on="1"/>
        <pt x="323" y="300" on="1"/>
        <pt x="323" y="243" on="1"/>
        <pt x="174" y="243" on="1"/>
        <pt x="174" y="143" on="1"/>
        <pt x="174" y="111" on="0"/>
        <pt x="216" y="65" on="0"/>
        <pt x="247" y="65" on="1"/>
        <pt x="278" y="65" on="1"/>
        <pt x="308" y="65" on="0"/>
        <pt x="351" y="111" on="0"/>
        <pt x="351" y="143" on="1"/>
        <pt x="351" y="172" on="1"/>
        <pt x="414" y="172" on="1"/>
      </contour>
    </TTGlyph>
    <TTGlyph name="F" xMin="76" yMin="0" xMax="366" yMax="700">
      <contour>
        <pt x="366" y="700" on="1"/>
        <pt x="366" y="630" on="1"/>
        <pt x="145" y="630" on="1"/>
        <pt x="145" y="386" on="1"/>
        <pt x="318" y="386" on="1"/>
        <pt x="318" y="317" on="1"/>
        <pt x="145" y="317" on="1"/>
        <pt x="145" y="0" on="1"/>
        <pt x="76" y="0" on="1"/>
        <pt x="76" y="700" on="1"/>
      </contour>
    </TTGlyph>
    <TTGlyph name="G" xMin="64" yMin="-10" xMax="398" yMax="710">
      <contour>
        <pt x="133" y="180" on="1"/>
        <pt x="133" y="154" on="0"/>
        <pt x="153" y="110" on="0"/>
        <pt x="186" y="76" on="0"/>
        <pt x="229" y="57" on="0"/>
        <pt x="253" y="57" on="1"/>
        <pt x="263" y="57" on="0"/>
        <pt x="296" y="64" on="0"/>
        <pt x="329" y="81" on="1"/>
        <pt x="329" y="270" on="1"/>
        <pt x="398" y="270" on="1"/>
        <pt x="398" y="38" on="1"/>
        <pt x="339" y="6" on="0"/>
        <pt x="264" y="-10" on="0"/>
        <pt x="250" y="-10" on="1"/>
        <pt x="209" y="-10" on="0"/>
        <pt x="141" y="23" on="0"/>
        <pt x="91" y="78" on="0"/>
        <pt x="64" y="152" on="0"/>
        <pt x="64" y="194" on="1"/>
        <pt x="64" y="506" on="1"/>
        <pt x="68" y="601" on="0"/>
        <pt x="169" y="710" on="0"/>
        <pt x="252" y="710" on="1"/>
        <pt x="267" y="709" on="0"/>
        <pt x="307" y="701" on="0"/>
        <pt x="323" y="695" on="1"/>
        <pt x="391" y="669" on="1"/>
        <pt x="367" y="599" on="1"/>
        <pt x="291" y="628" on="1"/>
        <pt x="268" y="638" on="0"/>
        <pt x="252" y="638" on="1"/>
        <pt x="228" y="638" on="0"/>
        <pt x="184" y="616" on="0"/>
        <pt x="152" y="580" on="0"/>
        <pt x="133" y="532" on="0"/>
        <pt x="133" y="506" on="1"/>
      </contour>
    </TTGlyph>
    <TTGlyph name="H" xMin="76" yMin="1" xMax="440" yMax="700">
      <contour>
        <pt x="145" y="700" on="1"/>
        <pt x="145" y="389" on="1"/>
        <pt x="370" y="389" on="1"/>
        <pt x="370" y="700" on="1"/>
        <pt x="440" y="700" on="1"/>
        <pt x="440" y="1" on="1"/>
        <pt x="370" y="1" on="1"/>
        <pt x="370" y="318" on="1"/>
        <pt x="145" y="318" on="1"/>
        <pt x="145" y="1" on="1"/>
        <pt x="76" y="1" on="1"/>
        <pt x="76" y="700" on="1"/>
      </contour>
    </TTGlyph>
    <TTGlyph name="I" xMin="76" yMin="0" xMax="141" yMax="700">
      <contour>
        <pt x="76" y="700" on="1"/>
        <pt x="141" y="700" on="1"/>
        <pt x="141" y="0" on="1"/>
        <pt x="76" y="0" on="1"/>
      </contour>
    </TTGlyph>
    <TTGlyph name="Iacute" xMin="76" yMin="0" xMax="260" yMax="931">
      <component glyphName="I" x="0" y="0" flags="0x1204"/>
      <component glyphName="acute" x="-111" y="200" flags="0x1004"/>
    </TTGlyph>
    <TTGlyph name="Icircumflex" xMin="-29" yMin="0" xMax="246" yMax="944">
      <component glyphName="I" x="0" y="0" flags="0x1204"/>
      <component glyphName="circumflex" x="-86" y="200" flags="0x1004"/>
    </TTGlyph>
    <TTGlyph name="Idieresis" xMin="-23" yMin="0" xMax="239" yMax="872">
      <component glyphName="I" x="0" y="0" flags="0x1204"/>
      <component glyphName="dieresis" x="-121" y="200" flags="0x1004"/>
    </TTGlyph>
    <TTGlyph name="Igrave" xMin="-36" yMin="0" xMax="144" yMax="930">
      <component glyphName="I" x="0" y="0" flags="0x1204"/>
      <component glyphName="grave" x="-122" y="200" flags="0x1004"/>
    </TTGlyph>
    <TTGlyph name="J" xMin="14" yMin="-10" xMax="236" yMax="700">
      <contour>
        <pt x="236" y="140" on="1"/>
        <pt x="236" y="97" on="0"/>
        <pt x="227" y="39" on="0"/>
        <pt x="200" y="5" on="0"/>
        <pt x="152" y="-10" on="0"/>
        <pt x="113" y="-10" on="1"/>
        <pt x="109" y="-10" on="0"/>
        <pt x="83" y="-8" on="0"/>
        <pt x="52" y="-5" on="0"/>
        <pt x="22" y="-1" on="0"/>
        <pt x="14" y="1" on="1"/>
        <pt x="27" y="73" on="1"/>
        <pt x="32" y="71" on="0"/>
        <pt x="58" y="68" on="0"/>
        <pt x="86" y="65" on="0"/>
        <pt x="108" y="63" on="0"/>
        <pt x="110" y="63" on="1"/>
        <pt x="121" y="63" on="0"/>
        <pt x="142" y="68" on="0"/>
        <pt x="158" y="83" on="0"/>
        <pt x="168" y="110" on="0"/>
        <pt x="168" y="133" on="1"/>
        <pt x="168" y="700" on="1"/>
        <pt x="236" y="700" on="1"/>
        <pt x="236" y="140" on="1"/>
      </contour>
    </TTGlyph>
    <TTGlyph name="K" xMin="76" yMin="0" xMax="376" yMax="700">
      <contour>
        <pt x="299" y="0" on="1"/>
        <pt x="161" y="313" on="1"/>
        <pt x="144" y="313" on="1"/>
        <pt x="144" y="0" on="1"/>
        <pt x="76" y="0" on="1"/>
        <pt x="76" y="700" on="1"/>
        <pt x="144" y="700" on="1"/>
        <pt x="144" y="385" on="1"/>
        <pt x="160" y="385" on="1"/>
        <pt x="195" y="463" on="0"/>
        <pt x="266" y="620" on="0"/>
        <pt x="301" y="698" on="1"/>
        <pt x="376" y="698" on="1"/>
        <pt x="223" y="348" on="1"/>
        <pt x="374" y="0" on="1"/>
      </contour>
    </TTGlyph>
    <TTGlyph name="L" xMin="76" yMin="0" xMax="363" yMax="700">
      <contour>
        <pt x="76" y="700" on="1"/>
        <pt x="145" y="700" on="1"/>
        <pt x="145" y="69" on="1"/>
        <pt x="363" y="69" on="1"/>
        <pt x="363" y="0" on="1"/>
        <pt x="76" y="0" on="1"/>
      </contour>
    </TTGlyph>
    <TTGlyph name="Lslash" xMin="11" yMin="1" xMax="365" yMax="700">
      <contour>
        <pt x="365" y="1" on="1"/>
        <pt x="78" y="1" on="1"/>
        <pt x="78" y="206" on="1"/>
        <pt x="11" y="206" on="1"/>
        <pt x="11" y="273" on="1"/>
        <pt x="78" y="273" on="1"/>
        <pt x="78" y="700" on="1"/>
        <pt x="148" y="700" on="1"/>
        <pt x="148" y="273" on="1"/>
        <pt x="363" y="273" on="1"/>
        <pt x="363" y="206" on="1"/>
        <pt x="148" y="206" on="1"/>
        <pt x="148" y="70" on="1"/>
        <pt x="365" y="70" on="1"/>
      </contour>
    </TTGlyph>
    <TTGlyph name="M" xMin="76" yMin="0" xMax="533" yMax="700">
      <contour>
        <pt x="306" y="274" on="1"/>
        <pt x="436" y="700" on="1"/>
        <pt x="533" y="700" on="1"/>
        <pt x="533" y="0" on="1"/>
        <pt x="467" y="0" on="1"/>
        <pt x="467" y="571" on="1"/>
        <pt x="466" y="571" on="1"/>
        <pt x="351" y="202" on="1"/>
        <pt x="256" y="202" on="1"/>
        <pt x="142" y="569" on="1"/>
        <pt x="142" y="0" on="1"/>
        <pt x="76" y="0" on="1"/>
        <pt x="76" y="700" on="1"/>
        <pt x="174" y="700" on="1"/>
        <pt x="302" y="274" on="1"/>
      </contour>
    </TTGlyph>
    <TTGlyph name="N" xMin="76" yMin="0" xMax="480" yMax="700">
      <contour>
        <pt x="480" y="700" on="1"/>
        <pt x="480" y="0" on="1"/>
        <pt x="374" y="0" on="1"/>
        <pt x="141" y="571" on="1"/>
        <pt x="140" y="571" on="1"/>
        <pt x="140" y="0" on="1"/>
        <pt x="76" y="0" on="1"/>
        <pt x="76" y="700" on="1"/>
        <pt x="158" y="700" on="1"/>
        <pt x="413" y="81" on="1"/>
        <pt x="415" y="81" on="1"/>
        <pt x="415" y="700" on="1"/>
      </contour>
    </TTGlyph>
    <TTGlyph name="Ntilde" xMin="76" yMin="0" xMax="480" yMax="851">
      <component glyphName="N" x="0" y="0" flags="0x1204"/>
      <component glyphName="tilde" x="32" y="200" flags="0x1004"/>
    </TTGlyph>
    <TTGlyph name="O" xMin="65" yMin="-9" xMax="455" yMax="709">
      <contour>
        <pt x="388" y="520" on="1"/>
        <pt x="388" y="557" on="0"/>
        <pt x="360" y="602" on="0"/>
        <pt x="319" y="627" on="0"/>
        <pt x="275" y="635" on="0"/>
        <pt x="260" y="635" on="1"/>
        <pt x="245" y="635" on="0"/>
        <pt x="201" y="626" on="0"/>
        <pt x="161" y="601" on="0"/>
        <pt x="132" y="556" on="0"/>
        <pt x="132" y="519" on="1"/>
        <pt x="132" y="175" on="1"/>
        <pt x="132" y="137" on="0"/>
        <pt x="161" y="94" on="0"/>
        <pt x="201" y="71" on="0"/>
        <pt x="245" y="65" on="0"/>
        <pt x="260" y="65" on="1"/>
        <pt x="275" y="65" on="0"/>
        <pt x="319" y="72" on="0"/>
        <pt x="360" y="95" on="0"/>
        <pt x="388" y="138" on="0"/>
        <pt x="388" y="175" on="1"/>
      </contour>
      <contour>
        <pt x="455" y="175" on="1"/>
        <pt x="455" y="153" on="0"/>
        <pt x="438" y="90" on="0"/>
        <pt x="393" y="32" on="0"/>
        <pt x="317" y="-9" on="0"/>
        <pt x="259" y="-9" on="1"/>
        <pt x="202" y="-9" on="0"/>
        <pt x="128" y="32" on="0"/>
        <pt x="83" y="90" on="0"/>
        <pt x="65" y="153" on="0"/>
        <pt x="65" y="175" on="1"/>
        <pt x="65" y="519" on="1"/>
        <pt x="65" y="541" on="0"/>
        <pt x="82" y="606" on="0"/>
        <pt x="126" y="666" on="0"/>
        <pt x="202" y="709" on="0"/>
        <pt x="260" y="709" on="1"/>
        <pt x="317" y="709" on="0"/>
        <pt x="392" y="667" on="0"/>
        <pt x="437" y="607" on="0"/>
        <pt x="455" y="542" on="0"/>
        <pt x="455" y="520" on="1"/>
      </contour>
    </TTGlyph>
    <TTGlyph name="OE" xMin="65" yMin="1" xMax="679" yMax="719">
      <contour>
        <pt x="261" y="75" on="1"/>
        <pt x="274" y="75" on="0"/>
        <pt x="313" y="83" on="0"/>
        <pt x="351" y="104" on="0"/>
        <pt x="381" y="140" on="0"/>
        <pt x="387" y="169" on="1"/>
        <pt x="387" y="546" on="1"/>
        <pt x="384" y="577" on="0"/>
        <pt x="354" y="616" on="0"/>
        <pt x="315" y="638" on="0"/>
        <pt x="275" y="645" on="0"/>
        <pt x="261" y="645" on="1"/>
        <pt x="246" y="645" on="0"/>
        <pt x="201" y="636" on="0"/>
        <pt x="161" y="610" on="0"/>
        <pt x="132" y="565" on="0"/>
        <pt x="132" y="528" on="1"/>
        <pt x="132" y="184" on="1"/>
        <pt x="132" y="147" on="0"/>
        <pt x="161" y="104" on="0"/>
        <pt x="201" y="81" on="0"/>
        <pt x="246" y="75" on="0"/>
      </contour>
      <contour>
        <pt x="387" y="11" on="1"/>
        <pt x="387" y="40" on="1"/>
        <pt x="364" y="23" on="0"/>
        <pt x="302" y="1" on="0"/>
        <pt x="260" y="1" on="1"/>
        <pt x="203" y="1" on="0"/>
        <pt x="128" y="42" on="0"/>
        <pt x="83" y="99" on="0"/>
        <pt x="65" y="162" on="0"/>
        <pt x="65" y="185" on="1"/>
        <pt x="65" y="528" on="1"/>
        <pt x="65" y="550" on="0"/>
        <pt x="83" y="616" on="0"/>
        <pt x="127" y="676" on="0"/>
        <pt x="203" y="719" on="0"/>
        <pt x="261" y="719" on="1"/>
        <pt x="303" y="719" on="0"/>
        <pt x="364" y="695" on="0"/>
        <pt x="387" y="675" on="1"/>
        <pt x="387" y="710" on="1"/>
        <pt x="677" y="710" on="1"/>
        <pt x="677" y="640" on="1"/>
        <pt x="457" y="640" on="1"/>
        <pt x="457" y="397" on="1"/>
        <pt x="629" y="397" on="1"/>
        <pt x="629" y="326" on="1"/>
        <pt x="457" y="326" on="1"/>
        <pt x="457" y="81" on="1"/>
        <pt x="679" y="81" on="1"/>
        <pt x="679" y="11" on="1"/>
      </contour>
    </TTGlyph>
    <TTGlyph name="Oacute" xMin="65" yMin="-9" xMax="455" yMax="931">
      <component glyphName="O" x="0" y="0" flags="0x1204"/>
      <component glyphName="acute" x="38" y="200" flags="0x1004"/>
    </TTGlyph>
    <TTGlyph name="Ocircumflex" xMin="65" yMin="-9" xMax="455" yMax="944">
      <component glyphName="O" x="0" y="0" flags="0x1204"/>
      <component glyphName="circumflex" x="65" y="200" flags="0x1004"/>
    </TTGlyph>
    <TTGlyph name="Odieresis" xMin="65" yMin="-9" xMax="455" yMax="872">
      <component glyphName="O" x="0" y="0" flags="0x1204"/>
      <component glyphName="dieresis" x="34" y="200" flags="0x1004"/>
    </TTGlyph>
    <TTGlyph name="Ograve" xMin="65" yMin="-9" xMax="455" yMax="930">
      <component glyphName="O" x="0" y="0" flags="0x1204"/>
      <component glyphName="grave" x="36" y="200" flags="0x1004"/>
    </TTGlyph>
    <TTGlyph name="Oslash" xMin="65" yMin="-65" xMax="456" yMax="765">
      <contour>
        <pt x="388" y="520" on="1"/>
        <pt x="388" y="557" on="0"/>
        <pt x="360" y="602" on="0"/>
        <pt x="319" y="627" on="0"/>
        <pt x="275" y="635" on="0"/>
        <pt x="260" y="635" on="1"/>
        <pt x="245" y="635" on="0"/>
        <pt x="201" y="626" on="0"/>
        <pt x="161" y="601" on="0"/>
        <pt x="132" y="556" on="0"/>
        <pt x="132" y="519" on="1"/>
        <pt x="132" y="175" on="1"/>
        <pt x="132" y="137" on="0"/>
        <pt x="161" y="94" on="0"/>
        <pt x="201" y="71" on="0"/>
        <pt x="245" y="65" on="0"/>
        <pt x="260" y="65" on="1"/>
        <pt x="275" y="65" on="0"/>
        <pt x="319" y="72" on="0"/>
        <pt x="360" y="95" on="0"/>
        <pt x="388" y="138" on="0"/>
        <pt x="388" y="175" on="1"/>
      </contour>
      <contour>
        <pt x="456" y="175" on="1"/>
        <pt x="456" y="153" on="0"/>
        <pt x="438" y="90" on="0"/>
        <pt x="394" y="32" on="0"/>
        <pt x="317" y="-9" on="0"/>
        <pt x="259" y="-9" on="1"/>
        <pt x="203" y="-9" on="0"/>
        <pt x="128" y="32" on="0"/>
        <pt x="83" y="90" on="0"/>
        <pt x="65" y="153" on="0"/>
        <pt x="65" y="175" on="1"/>
        <pt x="65" y="519" on="1"/>
        <pt x="65" y="541" on="0"/>
        <pt x="83" y="606" on="0"/>
        <pt x="127" y="666" on="0"/>
        <pt x="202" y="709" on="0"/>
        <pt x="260" y="709" on="1"/>
        <pt x="317" y="709" on="0"/>
        <pt x="392" y="667" on="0"/>
        <pt x="437" y="607" on="0"/>
        <pt x="456" y="542" on="0"/>
        <pt x="456" y="520" on="1"/>
      </contour>
      <contour>
        <pt x="358" y="765" on="1"/>
        <pt x="236" y="-65" on="1"/>
        <pt x="163" y="-65" on="1"/>
        <pt x="285" y="765" on="1"/>
      </contour>
    </TTGlyph>
    <TTGlyph name="Otilde" xMin="65" yMin="-9" xMax="455" yMax="851">
      <component glyphName="O" x="0" y="0" flags="0x1204"/>
      <component glyphName="tilde" x="15" y="200" flags="0x1004"/>
    </TTGlyph>
    <TTGlyph name="P" xMin="75" yMin="0" xMax="463" yMax="710">
      <contour>
        <pt x="244" y="639" on="1"/>
        <pt x="228" y="639" on="0"/>
        <pt x="192" y="632" on="0"/>
        <pt x="177" y="627" on="1"/>
        <pt x="159" y="622" on="0"/>
        <pt x="142" y="616" on="1"/>
        <pt x="142" y="351" on="1"/>
        <pt x="244" y="351" on="1"/>
        <pt x="312" y="351" on="0"/>
        <pt x="394" y="426" on="0"/>
        <pt x="394" y="500" on="1"/>
        <pt x="394" y="573" on="0"/>
        <pt x="310" y="639" on="0"/>
      </contour>
      <contour>
        <pt x="252" y="710" on="1"/>
        <pt x="294" y="710" on="0"/>
        <pt x="370" y="680" on="0"/>
        <pt x="428" y="625" on="0"/>
        <pt x="463" y="548" on="0"/>
        <pt x="463" y="500" on="1"/>
        <pt x="463" y="452" on="0"/>
        <pt x="431" y="371" on="0"/>
        <pt x="374" y="312" on="0"/>
        <pt x="296" y="280" on="0"/>
        <pt x="251" y="280" on="1"/>
        <pt x="141" y="280" on="1"/>
        <pt x="141" y="0" on="1"/>
        <pt x="75" y="0" on="1"/>
        <pt x="75" y="669" on="1"/>
        <pt x="102" y="680" on="0"/>
        <pt x="132" y="689" on="1"/>
        <pt x="158" y="697" on="0"/>
        <pt x="220" y="710" on="0"/>
      </contour>
    </TTGlyph>
    <TTGlyph name="Q" xMin="65" yMin="-101" xMax="455" yMax="709">
      <contour>
        <pt x="386" y="518" on="1"/>
        <pt x="386" y="555" on="0"/>
        <pt x="358" y="601" on="0"/>
        <pt x="318" y="628" on="0"/>
        <pt x="275" y="638" on="0"/>
        <pt x="260" y="638" on="1"/>
        <pt x="245" y="638" on="0"/>
        <pt x="202" y="628" on="0"/>
        <pt x="162" y="602" on="0"/>
        <pt x="134" y="556" on="0"/>
        <pt x="134" y="519" on="1"/>
        <pt x="134" y="175" on="1"/>
        <pt x="134" y="137" on="0"/>
        <pt x="162" y="94" on="0"/>
        <pt x="202" y="71" on="0"/>
        <pt x="245" y="65" on="0"/>
        <pt x="260" y="65" on="1"/>
        <pt x="275" y="65" on="0"/>
        <pt x="318" y="71" on="0"/>
        <pt x="358" y="94" on="0"/>
        <pt x="386" y="137" on="0"/>
        <pt x="386" y="175" on="1"/>
      </contour>
      <contour>
        <pt x="455" y="175" on="1"/>
        <pt x="455" y="156" on="0"/>
        <pt x="440" y="103" on="0"/>
        <pt x="407" y="51" on="0"/>
        <pt x="354" y="7" on="0"/>
        <pt x="315" y="-3" on="1"/>
        <pt x="325" y="-19" on="0"/>
        <pt x="346" y="-28" on="1"/>
        <pt x="327" y="-101" on="1"/>
        <pt x="295" y="-87" on="0"/>
        <pt x="248" y="-41" on="0"/>
        <pt x="238" y="-8" on="1"/>
        <pt x="188" y="-3" on="0"/>
        <pt x="122" y="40" on="0"/>
        <pt x="82" y="95" on="0"/>
        <pt x="65" y="154" on="0"/>
        <pt x="65" y="175" on="1"/>
        <pt x="65" y="518" on="1"/>
        <pt x="65" y="540" on="0"/>
        <pt x="82" y="605" on="0"/>
        <pt x="126" y="666" on="0"/>
        <pt x="202" y="709" on="0"/>
        <pt x="260" y="709" on="1"/>
        <pt x="317" y="709" on="0"/>
        <pt x="392" y="666" on="0"/>
        <pt x="437" y="605" on="0"/>
        <pt x="455" y="540" on="0"/>
        <pt x="455" y="518" on="1"/>
      </contour>
    </TTGlyph>
    <TTGlyph name="R" xMin="75" yMin="0" xMax="475" yMax="710">
      <contour>
        <pt x="244" y="639" on="1"/>
        <pt x="228" y="639" on="0"/>
        <pt x="192" y="632" on="0"/>
        <pt x="177" y="628" on="1"/>
        <pt x="159" y="623" on="0"/>
        <pt x="142" y="617" on="1"/>
        <pt x="142" y="352" on="1"/>
        <pt x="244" y="352" on="1"/>
        <pt x="312" y="352" on="0"/>
        <pt x="394" y="432" on="0"/>
        <pt x="394" y="507" on="1"/>
        <pt x="394" y="543" on="0"/>
        <pt x="372" y="594" on="0"/>
        <pt x="332" y="625" on="0"/>
        <pt x="277" y="639" on="0"/>
      </contour>
      <contour>
        <pt x="475" y="0" on="1"/>
        <pt x="407" y="0" on="1"/>
        <pt x="285" y="283" on="1"/>
        <pt x="277" y="282" on="0"/>
        <pt x="259" y="281" on="0"/>
        <pt x="251" y="281" on="1"/>
        <pt x="141" y="281" on="1"/>
        <pt x="141" y="0" on="1"/>
        <pt x="75" y="0" on="1"/>
        <pt x="75" y="669" on="1"/>
        <pt x="103" y="680" on="0"/>
        <pt x="133" y="689" on="1"/>
        <pt x="159" y="697" on="0"/>
        <pt x="221" y="710" on="0"/>
        <pt x="252" y="710" on="1"/>
        <pt x="294" y="710" on="0"/>
        <pt x="370" y="683" on="0"/>
        <pt x="428" y="630" on="0"/>
        <pt x="463" y="555" on="0"/>
        <pt x="463" y="507" on="1"/>
        <pt x="463" y="474" on="0"/>
        <pt x="447" y="411" on="0"/>
        <pt x="418" y="356" on="0"/>
        <pt x="377" y="314" on="0"/>
        <pt x="353" y="302" on="1"/>
      </contour>
    </TTGlyph>
    <TTGlyph name="S" xMin="39" yMin="1" xMax="443" yMax="710">
      <contour>
        <pt x="443" y="208" on="1"/>
        <pt x="443" y="166" on="0"/>
        <pt x="413" y="90" on="0"/>
        <pt x="361" y="34" on="0"/>
        <pt x="291" y="1" on="0"/>
        <pt x="250" y="1" on="1"/>
        <pt x="211" y="1" on="0"/>
        <pt x="135" y="22" on="0"/>
        <pt x="105" y="35" on="1"/>
        <pt x="70" y="50" on="0"/>
        <pt x="39" y="69" on="1"/>
        <pt x="63" y="135" on="1"/>
        <pt x="98" y="117" on="0"/>
        <pt x="131" y="104" on="1"/>
        <pt x="160" y="92" on="0"/>
        <pt x="224" y="73" on="0"/>
        <pt x="249" y="73" on="1"/>
        <pt x="275" y="73" on="0"/>
        <pt x="321" y="94" on="0"/>
        <pt x="354" y="130" on="0"/>
        <pt x="373" y="178" on="0"/>
        <pt x="373" y="206" on="1"/>
        <pt x="373" y="234" on="0"/>
        <pt x="347" y="272" on="0"/>
        <pt x="306" y="297" on="0"/>
        <pt x="257" y="311" on="0"/>
        <pt x="234" y="315" on="1"/>
        <pt x="196" y="321" on="0"/>
        <pt x="130" y="352" on="0"/>
        <pt x="81" y="400" on="0"/>
        <pt x="52" y="465" on="0"/>
        <pt x="52" y="506" on="1"/>
        <pt x="52" y="548" on="0"/>
        <pt x="82" y="622" on="0"/>
        <pt x="134" y="677" on="0"/>
        <pt x="203" y="710" on="0"/>
        <pt x="242" y="710" on="1"/>
        <pt x="266" y="710" on="0"/>
        <pt x="318" y="699" on="0"/>
        <pt x="341" y="692" on="1"/>
        <pt x="367" y="684" on="0"/>
        <pt x="393" y="674" on="1"/>
        <pt x="371" y="606" on="1"/>
        <pt x="348" y="615" on="0"/>
        <pt x="325" y="622" on="1"/>
        <pt x="305" y="628" on="0"/>
        <pt x="260" y="639" on="0"/>
        <pt x="240" y="639" on="1"/>
        <pt x="215" y="639" on="0"/>
        <pt x="171" y="617" on="0"/>
        <pt x="139" y="581" on="0"/>
        <pt x="121" y="534" on="0"/>
        <pt x="121" y="509" on="1"/>
        <pt x="121" y="480" on="0"/>
        <pt x="145" y="437" on="0"/>
        <pt x="182" y="407" on="0"/>
        <pt x="226" y="389" on="0"/>
        <pt x="246" y="385" on="1"/>
        <pt x="287" y="378" on="0"/>
        <pt x="359" y="352" on="0"/>
        <pt x="412" y="310" on="0"/>
        <pt x="443" y="250" on="0"/>
      </contour>
    </TTGlyph>
    <TTGlyph name="Scaron" xMin="39" yMin="1" xMax="443" yMax="943">
      <component glyphName="S" x="0" y="0" flags="0x1204"/>
      <component glyphName="caron" x="51" y="200" flags="0x1004"/>
    </TTGlyph>
    <TTGlyph name="T" xMin="18" yMin="0" xMax="404" yMax="700">
      <contour>
        <pt x="404" y="633" on="1"/>
        <pt x="247" y="633" on="1"/>
        <pt x="247" y="0" on="1"/>
        <pt x="180" y="0" on="1"/>
        <pt x="180" y="633" on="1"/>
        <pt x="18" y="633" on="1"/>
        <pt x="18" y="700" on="1"/>
        <pt x="404" y="700" on="1"/>
      </contour>
    </TTGlyph>
    <TTGlyph name="Thorn" xMin="75" yMin="-244" xMax="382" yMax="700">
      <contour>
        <pt x="139" y="80" on="1"/>
        <pt x="190" y="55" on="0"/>
        <pt x="245" y="55" on="1"/>
        <pt x="275" y="55" on="0"/>
        <pt x="319" y="101" on="0"/>
        <pt x="319" y="133" on="1"/>
        <pt x="319" y="372" on="1"/>
        <pt x="319" y="404" on="0"/>
        <pt x="275" y="450" on="0"/>
        <pt x="244" y="450" on="1"/>
        <pt x="223" y="450" on="0"/>
        <pt x="162" y="434" on="0"/>
        <pt x="139" y="420" on="1"/>
      </contour>
      <contour>
        <pt x="138" y="490" on="1"/>
        <pt x="176" y="510" on="0"/>
        <pt x="229" y="514" on="0"/>
        <pt x="244" y="514" on="1"/>
        <pt x="273" y="514" on="0"/>
        <pt x="323" y="491" on="0"/>
        <pt x="361" y="451" on="0"/>
        <pt x="382" y="399" on="0"/>
        <pt x="382" y="369" on="1"/>
        <pt x="382" y="137" on="1"/>
        <pt x="382" y="107" on="0"/>
        <pt x="361" y="54" on="0"/>
        <pt x="323" y="15" on="0"/>
        <pt x="273" y="-7" on="0"/>
        <pt x="244" y="-7" on="1"/>
        <pt x="224" y="-7" on="0"/>
        <pt x="169" y="1" on="0"/>
        <pt x="137" y="15" on="1"/>
        <pt x="137" y="-244" on="1"/>
        <pt x="75" y="-244" on="1"/>
        <pt x="76" y="700" on="1"/>
        <pt x="138" y="700" on="1"/>
      </contour>
    </TTGlyph>
    <TTGlyph name="U" xMin="74" yMin="-7" xMax="460" yMax="701">
      <contour>
        <pt x="267" y="56" on="1"/>
        <pt x="284" y="56" on="0"/>
        <pt x="329" y="66" on="0"/>
        <pt x="369" y="93" on="0"/>
        <pt x="396" y="139" on="0"/>
        <pt x="396" y="176" on="1"/>
        <pt x="396" y="701" on="1"/>
        <pt x="460" y="701" on="1"/>
        <pt x="460" y="176" on="1"/>
        <pt x="460" y="147" on="0"/>
        <pt x="442" y="82" on="0"/>
        <pt x="398" y="28" on="0"/>
        <pt x="323" y="-7" on="0"/>
        <pt x="267" y="-7" on="1"/>
        <pt x="211" y="-7" on="0"/>
        <pt x="137" y="28" on="0"/>
        <pt x="92" y="82" on="0"/>
        <pt x="74" y="147" on="0"/>
        <pt x="74" y="176" on="1"/>
        <pt x="74" y="701" on="1"/>
        <pt x="139" y="701" on="1"/>
        <pt x="139" y="176" on="1"/>
        <pt x="139" y="139" on="0"/>
        <pt x="165" y="93" on="0"/>
        <pt x="203" y="66" on="0"/>
        <pt x="248" y="56" on="0"/>
      </contour>
    </TTGlyph>
    <TTGlyph name="Uacute" xMin="74" yMin="-7" xMax="460" yMax="931">
      <component glyphName="U" x="0" y="0" flags="0x1204"/>
      <component glyphName="acute" x="34" y="200" flags="0x1004"/>
    </TTGlyph>
    <TTGlyph name="Ucircumflex" xMin="74" yMin="-7" xMax="460" yMax="944">
      <component glyphName="U" x="0" y="0" flags="0x1204"/>
      <component glyphName="circumflex" x="72" y="200" flags="0x1004"/>
    </TTGlyph>
    <TTGlyph name="Udieresis" xMin="74" yMin="-7" xMax="460" yMax="872">
      <component glyphName="U" x="0" y="0" flags="0x1204"/>
      <component glyphName="dieresis" x="36" y="200" flags="0x1004"/>
    </TTGlyph>
    <TTGlyph name="Ugrave" xMin="74" yMin="-7" xMax="460" yMax="930">
      <component glyphName="U" x="0" y="0" flags="0x1204"/>
      <component glyphName="grave" x="44" y="200" flags="0x1004"/>
    </TTGlyph>
    <TTGlyph name="V" xMin="24" yMin="0" xMax="437" yMax="700">
      <contour>
        <pt x="437" y="700" on="1"/>
        <pt x="276" y="0" on="1"/>
        <pt x="181" y="0" on="1"/>
        <pt x="24" y="700" on="1"/>
        <pt x="92" y="700" on="1"/>
        <pt x="229" y="78" on="1"/>
        <pt x="231" y="78" on="1"/>
        <pt x="233" y="88" on="0"/>
        <pt x="247" y="153" on="0"/>
        <pt x="267" y="244" on="0"/>
        <pt x="292" y="354" on="0"/>
        <pt x="304" y="410" on="1"/>
        <pt x="333" y="540" on="0"/>
        <pt x="368" y="700" on="1"/>
      </contour>
    </TTGlyph>
    <TTGlyph name="W" xMin="31" yMin="1" xMax="577" yMax="700">
      <contour>
        <pt x="305" y="347" on="1"/>
        <pt x="229" y="1" on="1"/>
        <pt x="133" y="1" on="1"/>
        <pt x="31" y="700" on="1"/>
        <pt x="96" y="700" on="1"/>
        <pt x="182" y="78" on="1"/>
        <pt x="262" y="432" on="1"/>
        <pt x="348" y="432" on="1"/>
        <pt x="423" y="78" on="1"/>
        <pt x="513" y="700" on="1"/>
        <pt x="577" y="700" on="1"/>
        <pt x="476" y="1" on="1"/>
        <pt x="379" y="1" on="1"/>
      </contour>
    </TTGlyph>
    <TTGlyph name="X" xMin="22" yMin="0" xMax="428" yMax="700">
      <contour>
        <pt x="221" y="312" on="1"/>
        <pt x="90" y="0" on="1"/>
        <pt x="22" y="0" on="1"/>
        <pt x="168" y="347" on="1"/>
        <pt x="22" y="700" on="1"/>
        <pt x="90" y="700" on="1"/>
        <pt x="225" y="384" on="1"/>
        <pt x="225" y="384" on="1"/>
        <pt x="360" y="700" on="1"/>
        <pt x="428" y="700" on="1"/>
        <pt x="282" y="347" on="1"/>
        <pt x="427" y="0" on="1"/>
        <pt x="358" y="0" on="1"/>
        <pt x="227" y="312" on="1"/>
      </contour>
    </TTGlyph>
    <TTGlyph name="Y" xMin="12" yMin="0" xMax="418" yMax="700">
      <contour>
        <pt x="258" y="312" on="1"/>
        <pt x="247" y="312" on="1"/>
        <pt x="247" y="0" on="1"/>
        <pt x="182" y="0" on="1"/>
        <pt x="182" y="312" on="1"/>
        <pt x="174" y="312" on="1"/>
        <pt x="12" y="700" on="1"/>
        <pt x="80" y="700" on="1"/>
        <pt x="215" y="384" on="1"/>
        <pt x="215" y="384" on="1"/>
        <pt x="350" y="700" on="1"/>
        <pt x="418" y="700" on="1"/>
      </contour>
    </TTGlyph>
    <TTGlyph name="Yacute" xMin="12" yMin="0" xMax="418" yMax="931">
      <component glyphName="Y" x="0" y="0" flags="0x1204"/>
      <component glyphName="acute" x="-16" y="200" flags="0x1004"/>
    </TTGlyph>
    <TTGlyph name="Ydieresis" xMin="12" yMin="0" xMax="418" yMax="872">
      <component glyphName="Y" x="0" y="0" flags="0x1204"/>
      <component glyphName="dieresis" x="-7" y="200" flags="0x1004"/>
    </TTGlyph>
    <TTGlyph name="Z" xMin="32" yMin="0" xMax="427" yMax="700">
      <contour>
        <pt x="325" y="628" on="1"/>
        <pt x="325" y="628" on="1"/>
        <pt x="54" y="628" on="1"/>
        <pt x="54" y="700" on="1"/>
        <pt x="411" y="700" on="1"/>
        <pt x="411" y="635" on="1"/>
        <pt x="118" y="72" on="1"/>
        <pt x="118" y="72" on="1"/>
        <pt x="427" y="72" on="1"/>
        <pt x="427" y="0" on="1"/>
        <pt x="32" y="0" on="1"/>
        <pt x="32" y="73" on="1"/>
      </contour>
    </TTGlyph>
    <TTGlyph name="Zcaron" xMin="32" yMin="0" xMax="427" yMax="943">
      <component glyphName="Z" x="0" y="0" flags="0x1204"/>
      <component glyphName="caron" x="33" y="200" flags="0x1004"/>
    </TTGlyph>
    <TTGlyph name="a" xMin="44" yMin="-10" xMax="369" yMax="510">
      <contour>
        <pt x="284" y="243" on="1"/>
        <pt x="284" y="244" on="0"/>
        <pt x="267" y="253" on="0"/>
        <pt x="239" y="263" on="0"/>
        <pt x="201" y="271" on="0"/>
        <pt x="180" y="271" on="1"/>
        <pt x="149" y="271" on="0"/>
        <pt x="106" y="225" on="0"/>
        <pt x="106" y="194" on="1"/>
        <pt x="106" y="132" on="1"/>
        <pt x="106" y="100" on="0"/>
        <pt x="149" y="55" on="0"/>
        <pt x="179" y="55" on="1"/>
        <pt x="190" y="55" on="0"/>
        <pt x="226" y="65" on="0"/>
        <pt x="243" y="71" on="1"/>
        <pt x="262" y="78" on="0"/>
        <pt x="284" y="88" on="1"/>
      </contour>
      <contour>
        <pt x="347" y="57" on="1"/>
        <pt x="369" y="37" on="1"/>
        <pt x="324" y="-8" on="1"/>
        <pt x="297" y="19" on="1"/>
        <pt x="266" y="4" on="0"/>
        <pt x="198" y="-10" on="0"/>
        <pt x="180" y="-10" on="1"/>
        <pt x="151" y="-10" on="0"/>
        <pt x="101" y="13" on="0"/>
        <pt x="65" y="53" on="0"/>
        <pt x="44" y="106" on="0"/>
        <pt x="44" y="136" on="1"/>
        <pt x="44" y="191" on="1"/>
        <pt x="44" y="220" on="0"/>
        <pt x="65" y="272" on="0"/>
        <pt x="101" y="311" on="0"/>
        <pt x="151" y="334" on="0"/>
        <pt x="180" y="334" on="1"/>
        <pt x="186" y="334" on="0"/>
        <pt x="211" y="333" on="0"/>
        <pt x="241" y="328" on="0"/>
        <pt x="272" y="319" on="0"/>
        <pt x="285" y="312" on="1"/>
        <pt x="285" y="333" on="1"/>
        <pt x="285" y="354" on="0"/>
        <pt x="270" y="396" on="0"/>
        <pt x="244" y="428" on="0"/>
        <pt x="209" y="448" on="0"/>
        <pt x="190" y="448" on="1"/>
        <pt x="183" y="448" on="0"/>
        <pt x="142" y="438" on="0"/>
        <pt x="119" y="433" on="1"/>
        <pt x="93" y="426" on="0"/>
        <pt x="61" y="418" on="1"/>
        <pt x="44" y="478" on="1"/>
        <pt x="77" y="487" on="0"/>
        <pt x="106" y="494" on="1"/>
        <pt x="131" y="500" on="0"/>
        <pt x="179" y="510" on="0"/>
        <pt x="190" y="510" on="1"/>
        <pt x="222" y="510" on="0"/>
        <pt x="279" y="480" on="0"/>
        <pt x="321" y="430" on="0"/>
        <pt x="346" y="367" on="0"/>
        <pt x="346" y="333" on="1"/>
      </contour>
    </TTGlyph>
    <TTGlyph name="aacute" xMin="44" yMin="-10" xMax="369" yMax="731">
      <component glyphName="a" x="0" y="0" flags="0x1204"/>
      <component glyphName="acute" x="-28" y="0" flags="0x1004"/>
    </TTGlyph>
    <TTGlyph name="acircumflex" xMin="44" yMin="-10" xMax="369" yMax="744">
      <component glyphName="a" x="0" y="0" flags="0x1204"/>
      <component glyphName="circumflex" x="10" y="0" flags="0x1004"/>
    </TTGlyph>
    <TTGlyph name="acute" xMin="191" yMin="574" xMax="371" yMax="731">
      <contour>
        <pt x="258" y="574" on="1"/>
        <pt x="191" y="574" on="1"/>
        <pt x="294" y="731" on="1"/>
        <pt x="371" y="731" on="1"/>
      </contour>
    </TTGlyph>
    <TTGlyph name="adieresis" xMin="44" yMin="-10" xMax="369" yMax="672">
      <component glyphName="a" x="0" y="0" flags="0x1204"/>
      <component glyphName="dieresis" x="-30" y="0" flags="0x1004"/>
    </TTGlyph>
    <TTGlyph name="ae" xMin="44" yMin="-10" xMax="596" yMax="510">
      <contour>
        <pt x="301" y="24" on="1"/>
        <pt x="269" y="4" on="0"/>
        <pt x="201" y="-10" on="0"/>
        <pt x="181" y="-10" on="1"/>
        <pt x="152" y="-10" on="0"/>
        <pt x="102" y="13" on="0"/>
        <pt x="65" y="53" on="0"/>
        <pt x="44" y="106" on="0"/>
        <pt x="44" y="136" on="1"/>
        <pt x="44" y="191" on="1"/>
        <pt x="44" y="220" on="0"/>
        <pt x="65" y="272" on="0"/>
        <pt x="102" y="311" on="0"/>
        <pt x="152" y="334" on="0"/>
        <pt x="181" y="334" on="1"/>
        <pt x="187" y="334" on="0"/>
        <pt x="212" y="333" on="0"/>
        <pt x="241" y="329" on="0"/>
        <pt x="271" y="320" on="0"/>
        <pt x="284" y="313" on="1"/>
        <pt x="284" y="345" on="1"/>
        <pt x="281" y="364" on="0"/>
        <pt x="264" y="402" on="0"/>
        <pt x="239" y="430" on="0"/>
        <pt x="208" y="448" on="0"/>
        <pt x="190" y="448" on="1"/>
        <pt x="183" y="448" on="0"/>
        <pt x="143" y="438" on="0"/>
        <pt x="120" y="433" on="1"/>
        <pt x="94" y="426" on="0"/>
        <pt x="62" y="418" on="1"/>
        <pt x="44" y="478" on="1"/>
        <pt x="78" y="487" on="0"/>
        <pt x="107" y="494" on="1"/>
        <pt x="132" y="500" on="0"/>
        <pt x="179" y="510" on="0"/>
        <pt x="190" y="510" on="1"/>
        <pt x="226" y="510" on="0"/>
        <pt x="287" y="476" on="0"/>
        <pt x="308" y="447" on="1"/>
        <pt x="327" y="477" on="0"/>
        <pt x="385" y="510" on="0"/>
        <pt x="423" y="510" on="1"/>
        <pt x="456" y="510" on="1"/>
        <pt x="485" y="510" on="0"/>
        <pt x="536" y="488" on="0"/>
        <pt x="574" y="449" on="0"/>
        <pt x="596" y="396" on="0"/>
        <pt x="596" y="365" on="1"/>
        <pt x="596" y="333" on="1"/>
        <pt x="596" y="290" on="0"/>
        <pt x="566" y="232" on="0"/>
        <pt x="513" y="196" on="0"/>
        <pt x="443" y="180" on="0"/>
        <pt x="404" y="180" on="1"/>
        <pt x="376" y="180" on="0"/>
        <pt x="348" y="183" on="1"/>
        <pt x="348" y="133" on="1"/>
        <pt x="356" y="98" on="0"/>
        <pt x="410" y="54" on="0"/>
        <pt x="445" y="54" on="1"/>
        <pt x="447" y="54" on="0"/>
        <pt x="490" y="63" on="0"/>
        <pt x="515" y="69" on="1"/>
        <pt x="544" y="75" on="0"/>
        <pt x="579" y="84" on="1"/>
        <pt x="595" y="18" on="1"/>
        <pt x="557" y="10" on="0"/>
        <pt x="525" y="4" on="1"/>
        <pt x="498" y="-1" on="0"/>
        <pt x="450" y="-9" on="0"/>
        <pt x="445" y="-9" on="1"/>
        <pt x="428" y="-9" on="0"/>
        <pt x="392" y="0" on="0"/>
        <pt x="360" y="13" on="0"/>
        <pt x="334" y="31" on="0"/>
        <pt x="325" y="40" on="1"/>
      </contour>
      <contour>
        <pt x="181" y="271" on="1"/>
        <pt x="150" y="271" on="0"/>
        <pt x="107" y="225" on="0"/>
        <pt x="107" y="194" on="1"/>
        <pt x="107" y="132" on="1"/>
        <pt x="107" y="100" on="0"/>
        <pt x="150" y="55" on="0"/>
        <pt x="180" y="55" on="1"/>
        <pt x="191" y="55" on="0"/>
        <pt x="227" y="65" on="0"/>
        <pt x="244" y="71" on="1"/>
        <pt x="263" y="78" on="0"/>
        <pt x="285" y="88" on="1"/>
        <pt x="285" y="129" on="1"/>
        <pt x="284" y="134" on="0"/>
        <pt x="284" y="145" on="0"/>
        <pt x="284" y="150" on="1"/>
        <pt x="284" y="240" on="1"/>
        <pt x="279" y="243" on="0"/>
        <pt x="259" y="253" on="0"/>
        <pt x="232" y="264" on="0"/>
        <pt x="199" y="271" on="0"/>
      </contour>
      <contour>
        <pt x="456" y="249" on="1"/>
        <pt x="472" y="248" on="0"/>
        <pt x="500" y="261" on="0"/>
        <pt x="520" y="283" on="0"/>
        <pt x="532" y="313" on="0"/>
        <pt x="532" y="329" on="1"/>
        <pt x="532" y="370" on="1"/>
        <pt x="532" y="391" on="0"/>
        <pt x="516" y="420" on="0"/>
        <pt x="489" y="438" on="0"/>
        <pt x="453" y="446" on="0"/>
        <pt x="434" y="446" on="1"/>
        <pt x="400" y="446" on="0"/>
        <pt x="348" y="405" on="0"/>
        <pt x="348" y="370" on="1"/>
        <pt x="348" y="249" on="1"/>
      </contour>
    </TTGlyph>
    <TTGlyph name="agrave" xMin="44" yMin="-10" xMax="369" yMax="730">
      <component glyphName="a" x="0" y="0" flags="0x1204"/>
      <component glyphName="grave" x="-21" y="0" flags="0x1004"/>
    </TTGlyph>
    <TTGlyph name="ampersand" xMin="29" yMin="-9" xMax="594" yMax="708">
      <contour>
        <pt x="215" y="332" on="1"/>
        <pt x="203" y="325" on="0"/>
        <pt x="178" y="309" on="0"/>
        <pt x="166" y="303" on="1"/>
        <pt x="167" y="303" on="1"/>
        <pt x="134" y="283" on="0"/>
        <pt x="96" y="230" on="0"/>
        <pt x="96" y="194" on="1"/>
        <pt x="96" y="163" on="0"/>
        <pt x="119" y="112" on="0"/>
        <pt x="158" y="76" on="0"/>
        <pt x="210" y="57" on="0"/>
        <pt x="240" y="57" on="1"/>
        <pt x="294" y="57" on="0"/>
        <pt x="373" y="98" on="0"/>
        <pt x="402" y="131" on="1"/>
      </contour>
      <contour>
        <pt x="530" y="363" on="1"/>
        <pt x="530" y="335" on="0"/>
        <pt x="525" y="272" on="0"/>
        <pt x="514" y="211" on="0"/>
        <pt x="496" y="153" on="0"/>
        <pt x="481" y="131" on="1"/>
        <pt x="507" y="100" on="0"/>
        <pt x="568" y="31" on="0"/>
        <pt x="594" y="0" on="1"/>
        <pt x="515" y="0" on="1"/>
        <pt x="448" y="84" on="1"/>
        <pt x="410" y="42" on="0"/>
        <pt x="306" y="-9" on="0"/>
        <pt x="240" y="-9" on="1"/>
        <pt x="196" y="-9" on="0"/>
        <pt x="119" y="20" on="0"/>
        <pt x="62" y="72" on="0"/>
        <pt x="29" y="147" on="0"/>
        <pt x="29" y="193" on="1"/>
        <pt x="29" y="247" on="0"/>
        <pt x="81" y="324" on="0"/>
        <pt x="126" y="351" on="1"/>
        <pt x="139" y="359" on="0"/>
        <pt x="161" y="371" on="0"/>
        <pt x="174" y="379" on="1"/>
        <pt x="129" y="429" on="1"/>
        <pt x="103" y="458" on="0"/>
        <pt x="80" y="513" on="0"/>
        <pt x="80" y="548" on="1"/>
        <pt x="80" y="581" on="0"/>
        <pt x="105" y="640" on="0"/>
        <pt x="150" y="683" on="0"/>
        <pt x="212" y="708" on="0"/>
        <pt x="249" y="708" on="1"/>
        <pt x="285" y="708" on="0"/>
        <pt x="347" y="686" on="0"/>
        <pt x="394" y="644" on="0"/>
        <pt x="421" y="585" on="0"/>
        <pt x="421" y="548" on="1"/>
        <pt x="421" y="495" on="0"/>
        <pt x="375" y="428" on="0"/>
        <pt x="334" y="404" on="1"/>
        <pt x="268" y="365" on="1"/>
        <pt x="440" y="181" on="1"/>
        <pt x="459" y="218" on="0"/>
        <pt x="470" y="306" on="0"/>
        <pt x="470" y="363" on="1"/>
      </contour>
      <contour>
        <pt x="358" y="548" on="1"/>
        <pt x="358" y="594" on="0"/>
        <pt x="296" y="648" on="0"/>
        <pt x="249" y="648" on="1"/>
        <pt x="206" y="648" on="0"/>
        <pt x="145" y="594" on="0"/>
        <pt x="145" y="548" on="1"/>
        <pt x="145" y="536" on="0"/>
        <pt x="151" y="514" on="0"/>
        <pt x="169" y="484" on="0"/>
        <pt x="202" y="442" on="0"/>
        <pt x="228" y="411" on="1"/>
        <pt x="300" y="456" on="1"/>
        <pt x="326" y="473" on="0"/>
        <pt x="358" y="519" on="0"/>
      </contour>
      <contour>
        <pt x="523" y="11" on="1"/>
        <pt x="513" y="3" on="1"/>
        <pt x="442" y="89" on="1"/>
        <pt x="452" y="97" on="1"/>
      </contour>
    </TTGlyph>
    <TTGlyph name="asciitilde" xMin="40" yMin="220" xMax="418" yMax="325">
      <contour>
        <pt x="418" y="282" on="1"/>
        <pt x="398" y="263" on="0"/>
        <pt x="368" y="239" on="0"/>
        <pt x="342" y="225" on="0"/>
        <pt x="317" y="220" on="0"/>
        <pt x="303" y="220" on="1"/>
        <pt x="284" y="220" on="0"/>
        <pt x="246" y="235" on="0"/>
        <pt x="226" y="244" on="1"/>
        <pt x="208" y="252" on="0"/>
        <pt x="171" y="267" on="0"/>
        <pt x="152" y="267" on="1"/>
        <pt x="144" y="267" on="0"/>
        <pt x="129" y="264" on="0"/>
        <pt x="114" y="256" on="0"/>
        <pt x="95" y="241" on="0"/>
        <pt x="82" y="228" on="1"/>
        <pt x="40" y="263" on="1"/>
        <pt x="59" y="282" on="0"/>
        <pt x="89" y="306" on="0"/>
        <pt x="115" y="320" on="0"/>
        <pt x="140" y="325" on="0"/>
        <pt x="154" y="325" on="1"/>
        <pt x="176" y="325" on="0"/>
        <pt x="214" y="309" on="0"/>
        <pt x="233" y="301" on="1"/>
        <pt x="251" y="292" on="0"/>
        <pt x="286" y="278" on="0"/>
        <pt x="305" y="278" on="1"/>
        <pt x="313" y="278" on="0"/>
        <pt x="327" y="281" on="0"/>
        <pt x="343" y="289" on="0"/>
        <pt x="361" y="304" on="0"/>
        <pt x="374" y="317" on="1"/>
      </contour>
    </TTGlyph>
    <TTGlyph name="asterisk" xMin="48" yMin="159" xMax="355" yMax="482">
      <contour>
        <pt x="328" y="215" on="1"/>
        <pt x="226" y="276" on="1"/>
        <pt x="229" y="159" on="1"/>
        <pt x="173" y="159" on="1"/>
        <pt x="176" y="276" on="1"/>
        <pt x="76" y="215" on="1"/>
        <pt x="48" y="264" on="1"/>
        <pt x="151" y="320" on="1"/>
        <pt x="48" y="376" on="1"/>
        <pt x="76" y="424" on="1"/>
        <pt x="175" y="365" on="1"/>
        <pt x="173" y="482" on="1"/>
        <pt x="229" y="482" on="1"/>
        <pt x="226" y="364" on="1"/>
        <pt x="328" y="424" on="1"/>
        <pt x="355" y="376" on="1"/>
        <pt x="251" y="320" on="1"/>
        <pt x="276" y="306" on="0"/>
        <pt x="330" y="278" on="0"/>
        <pt x="354" y="265" on="1"/>
      </contour>
    </TTGlyph>
    <TTGlyph name="at" xMin="43" yMin="-67" xMax="814" yMax="735">
      <contour>
        <pt x="814" y="397" on="1"/>
        <pt x="814" y="350" on="0"/>
        <pt x="791" y="254" on="0"/>
        <pt x="744" y="176" on="0"/>
        <pt x="671" y="126" on="0"/>
        <pt x="621" y="126" on="1"/>
        <pt x="589" y="126" on="0"/>
        <pt x="541" y="162" on="0"/>
        <pt x="531" y="193" on="1"/>
        <pt x="510" y="165" on="0"/>
        <pt x="441" y="128" on="0"/>
        <pt x="407" y="128" on="1"/>
        <pt x="368" y="128" on="0"/>
        <pt x="309" y="157" on="0"/>
        <pt x="268" y="206" on="0"/>
        <pt x="248" y="270" on="0"/>
        <pt x="248" y="306" on="1"/>
        <pt x="248" y="347" on="0"/>
        <pt x="273" y="426" on="0"/>
        <pt x="321" y="487" on="0"/>
        <pt x="391" y="525" on="0"/>
        <pt x="436" y="525" on="1"/>
        <pt x="467" y="525" on="0"/>
        <pt x="523" y="500" on="0"/>
        <pt x="540" y="474" on="1"/>
        <pt x="550" y="517" on="1"/>
        <pt x="599" y="517" on="1"/>
        <pt x="579" y="253" on="1"/>
        <pt x="579" y="244" on="1"/>
        <pt x="579" y="216" on="0"/>
        <pt x="603" y="182" on="0"/>
        <pt x="626" y="182" on="1"/>
        <pt x="657" y="182" on="0"/>
        <pt x="705" y="219" on="0"/>
        <pt x="738" y="280" on="0"/>
        <pt x="754" y="357" on="0"/>
        <pt x="754" y="397" on="1"/>
        <pt x="754" y="464" on="0"/>
        <pt x="706" y="568" on="0"/>
        <pt x="623" y="640" on="0"/>
        <pt x="512" y="677" on="0"/>
        <pt x="448" y="677" on="1"/>
        <pt x="369" y="677" on="0"/>
        <pt x="242" y="625" on="0"/>
        <pt x="152" y="531" on="0"/>
        <pt x="104" y="402" on="0"/>
        <pt x="104" y="324" on="1"/>
        <pt x="104" y="255" on="0"/>
        <pt x="150" y="134" on="0"/>
        <pt x="234" y="43" on="0"/>
        <pt x="350" y="-9" on="0"/>
        <pt x="421" y="-9" on="1"/>
        <pt x="486" y="-9" on="0"/>
        <pt x="611" y="15" on="0"/>
        <pt x="674" y="42" on="1"/>
        <pt x="674" y="-18" on="1"/>
        <pt x="608" y="-46" on="0"/>
        <pt x="487" y="-67" on="0"/>
        <pt x="419" y="-67" on="1"/>
        <pt x="335" y="-67" on="0"/>
        <pt x="196" y="-6" on="0"/>
        <pt x="97" y="99" on="0"/>
        <pt x="43" y="242" on="0"/>
        <pt x="43" y="324" on="1"/>
        <pt x="43" y="415" on="0"/>
        <pt x="101" y="566" on="0"/>
        <pt x="207" y="675" on="0"/>
        <pt x="356" y="735" on="0"/>
        <pt x="448" y="735" on="1"/>
        <pt x="524" y="735" on="0"/>
        <pt x="658" y="689" on="0"/>
        <pt x="757" y="602" on="0"/>
        <pt x="814" y="476" on="0"/>
      </contour>
      <contour>
        <pt x="528" y="347" on="1"/>
        <pt x="528" y="371" on="0"/>
        <pt x="518" y="415" on="0"/>
        <pt x="494" y="450" on="0"/>
        <pt x="456" y="470" on="0"/>
        <pt x="429" y="470" on="1"/>
        <pt x="400" y="470" on="0"/>
        <pt x="355" y="440" on="0"/>
        <pt x="325" y="393" on="0"/>
        <pt x="309" y="335" on="0"/>
        <pt x="309" y="306" on="1"/>
        <pt x="309" y="254" on="0"/>
        <pt x="358" y="183" on="0"/>
        <pt x="409" y="183" on="1"/>
        <pt x="441" y="183" on="0"/>
        <pt x="486" y="214" on="0"/>
        <pt x="515" y="262" on="0"/>
        <pt x="528" y="320" on="0"/>
      </contour>
    </TTGlyph>
    <TTGlyph name="atilde" xMin="44" yMin="-10" xMax="369" yMax="651">
      <component glyphName="a" x="0" y="0" flags="0x1204"/>
      <component glyphName="tilde" x="-42" y="0" flags="0x1004"/>
    </TTGlyph>
    <TTGlyph name="b" xMin="40" yMin="-8" xMax="365" yMax="695">
      <contour>
        <pt x="125" y="86" on="1"/>
        <pt x="128" y="79" on="0"/>
        <pt x="156" y="67" on="0"/>
        <pt x="189" y="59" on="0"/>
        <pt x="221" y="55" on="0"/>
        <pt x="230" y="55" on="1"/>
        <pt x="260" y="55" on="0"/>
        <pt x="303" y="100" on="0"/>
        <pt x="303" y="132" on="1"/>
        <pt x="303" y="369" on="1"/>
        <pt x="303" y="401" on="0"/>
        <pt x="260" y="446" on="0"/>
        <pt x="229" y="446" on="1"/>
        <pt x="221" y="446" on="0"/>
        <pt x="195" y="442" on="0"/>
        <pt x="166" y="435" on="0"/>
        <pt x="136" y="423" on="0"/>
        <pt x="125" y="416" on="1"/>
      </contour>
      <contour>
        <pt x="124" y="486" on="1"/>
        <pt x="162" y="506" on="0"/>
        <pt x="213" y="510" on="0"/>
        <pt x="229" y="510" on="1"/>
        <pt x="257" y="510" on="0"/>
        <pt x="307" y="487" on="0"/>
        <pt x="344" y="448" on="0"/>
        <pt x="365" y="396" on="0"/>
        <pt x="365" y="366" on="1"/>
        <pt x="365" y="136" on="1"/>
        <pt x="365" y="106" on="0"/>
        <pt x="344" y="53" on="0"/>
        <pt x="307" y="14" on="0"/>
        <pt x="257" y="-8" on="0"/>
        <pt x="229" y="-8" on="1"/>
        <pt x="208" y="-8" on="0"/>
        <pt x="144" y="3" on="0"/>
        <pt x="111" y="20" on="1"/>
        <pt x="104" y="15" on="0"/>
        <pt x="89" y="-1" on="0"/>
        <pt x="84" y="-6" on="1"/>
        <pt x="40" y="38" on="1"/>
        <pt x="61" y="60" on="1"/>
        <pt x="61" y="695" on="1"/>
        <pt x="124" y="695" on="1"/>
      </contour>
    </TTGlyph>
    <TTGlyph name="backslash" xMin="28" yMin="-55" xMax="362" yMax="761">
      <contour>
        <pt x="296" y="-55" on="1"/>
        <pt x="28" y="761" on="1"/>
        <pt x="95" y="761" on="1"/>
        <pt x="362" y="-55" on="1"/>
      </contour>
    </TTGlyph>
    <TTGlyph name="bar" xMin="66" yMin="-10" xMax="128" yMax="695">
      <contour>
        <pt x="66" y="-10" on="1"/>
        <pt x="66" y="695" on="1"/>
        <pt x="128" y="695" on="1"/>
        <pt x="128" y="-10" on="1"/>
      </contour>
    </TTGlyph>
    <TTGlyph name="braceleft" xMin="61" yMin="-72" xMax="207" yMax="767">
      <contour>
        <pt x="178" y="-72" on="1"/>
        <pt x="143" y="-72" on="0"/>
        <pt x="101" y="-58" on="0"/>
        <pt x="88" y="-45" on="1"/>
        <pt x="73" y="-30" on="0"/>
        <pt x="61" y="10" on="0"/>
        <pt x="61" y="45" on="1"/>
        <pt x="61" y="650" on="1"/>
        <pt x="61" y="685" on="0"/>
        <pt x="73" y="725" on="0"/>
        <pt x="88" y="739" on="1"/>
        <pt x="101" y="753" on="0"/>
        <pt x="143" y="767" on="0"/>
        <pt x="178" y="767" on="1"/>
        <pt x="207" y="767" on="1"/>
        <pt x="207" y="705" on="1"/>
        <pt x="183" y="705" on="1"/>
        <pt x="162" y="705" on="0"/>
        <pt x="140" y="703" on="0"/>
        <pt x="134" y="696" on="1"/>
        <pt x="127" y="689" on="0"/>
        <pt x="123" y="660" on="0"/>
        <pt x="123" y="638" on="1"/>
        <pt x="123" y="53" on="1"/>
        <pt x="123" y="30" on="0"/>
        <pt x="127" y="5" on="0"/>
        <pt x="134" y="-2" on="1"/>
        <pt x="140" y="-9" on="0"/>
        <pt x="162" y="-11" on="0"/>
        <pt x="183" y="-11" on="1"/>
        <pt x="207" y="-11" on="1"/>
        <pt x="207" y="-72" on="1"/>
      </contour>
    </TTGlyph>
    <TTGlyph name="braceright" xMin="31" yMin="-70" xMax="182" yMax="768">
      <contour>
        <pt x="182" y="47" on="1"/>
        <pt x="182" y="12" on="0"/>
        <pt x="169" y="-28" on="0"/>
        <pt x="154" y="-43" on="1"/>
        <pt x="140" y="-56" on="0"/>
        <pt x="98" y="-70" on="0"/>
        <pt x="63" y="-70" on="1"/>
        <pt x="31" y="-70" on="1"/>
        <pt x="31" y="-9" on="1"/>
        <pt x="71" y="-9" on="1"/>
        <pt x="85" y="-9" on="0"/>
        <pt x="103" y="-6" on="0"/>
        <pt x="108" y="-1" on="1"/>
        <pt x="119" y="11" on="0"/>
        <pt x="119" y="54" on="1"/>
        <pt x="119" y="644" on="1"/>
        <pt x="119" y="687" on="0"/>
        <pt x="108" y="698" on="1"/>
        <pt x="101" y="705" on="0"/>
        <pt x="79" y="707" on="0"/>
        <pt x="58" y="707" on="1"/>
        <pt x="31" y="707" on="1"/>
        <pt x="31" y="768" on="1"/>
        <pt x="63" y="768" on="1"/>
        <pt x="98" y="768" on="0"/>
        <pt x="140" y="755" on="0"/>
        <pt x="154" y="741" on="1"/>
        <pt x="169" y="727" on="0"/>
        <pt x="182" y="687" on="0"/>
        <pt x="182" y="652" on="1"/>
        <pt x="182" y="47" on="1"/>
      </contour>
    </TTGlyph>
    <TTGlyph name="bracketleft" xMin="63" yMin="-82" xMax="212" yMax="769">
      <contour>
        <pt x="63" y="-82" on="1"/>
        <pt x="63" y="769" on="1"/>
        <pt x="212" y="769" on="1"/>
        <pt x="212" y="708" on="1"/>
        <pt x="125" y="708" on="1"/>
        <pt x="125" y="-20" on="1"/>
        <pt x="212" y="-20" on="1"/>
        <pt x="212" y="-82" on="1"/>
      </contour>
    </TTGlyph>
    <TTGlyph name="bracketright" xMin="30" yMin="-83" xMax="179" yMax="768">
      <contour>
        <pt x="30" y="-83" on="1"/>
        <pt x="30" y="-21" on="1"/>
        <pt x="117" y="-21" on="1"/>
        <pt x="117" y="707" on="1"/>
        <pt x="30" y="707" on="1"/>
        <pt x="30" y="768" on="1"/>
        <pt x="179" y="768" on="1"/>
        <pt x="179" y="-83" on="1"/>
      </contour>
    </TTGlyph>
    <TTGlyph name="brokenbar" xMin="66" yMin="0" xMax="130" yMax="695">
      <contour>
        <pt x="66" y="695" on="1"/>
        <pt x="130" y="695" on="1"/>
        <pt x="130" y="377" on="1"/>
        <pt x="66" y="377" on="1"/>
      </contour>
      <contour>
        <pt x="66" y="317" on="1"/>
        <pt x="130" y="317" on="1"/>
        <pt x="130" y="0" on="1"/>
        <pt x="66" y="0" on="1"/>
      </contour>
    </TTGlyph>
    <TTGlyph name="bullet" xMin="41" yMin="139" xMax="256" yMax="355">
      <contour>
        <pt x="256" y="247" on="1"/>
        <pt x="256" y="225" on="0"/>
        <pt x="239" y="186" on="0"/>
        <pt x="209" y="156" on="0"/>
        <pt x="170" y="139" on="0"/>
        <pt x="148" y="139" on="1"/>
        <pt x="126" y="139" on="0"/>
        <pt x="87" y="156" on="0"/>
        <pt x="58" y="186" on="0"/>
        <pt x="41" y="225" on="0"/>
        <pt x="41" y="247" on="1"/>
        <pt x="41" y="269" on="0"/>
        <pt x="58" y="308" on="0"/>
        <pt x="87" y="338" on="0"/>
        <pt x="126" y="355" on="0"/>
        <pt x="148" y="355" on="1"/>
        <pt x="170" y="355" on="0"/>
        <pt x="209" y="338" on="0"/>
        <pt x="239" y="308" on="0"/>
        <pt x="256" y="269" on="0"/>
      </contour>
    </TTGlyph>
    <TTGlyph name="c" xMin="52" yMin="-8" xMax="323" yMax="511">
      <contour>
        <pt x="114" y="151" on="1"/>
        <pt x="114" y="106" on="0"/>
        <pt x="173" y="54" on="0"/>
        <pt x="213" y="54" on="1"/>
        <pt x="221" y="54" on="0"/>
        <pt x="252" y="59" on="0"/>
        <pt x="267" y="63" on="1"/>
        <pt x="285" y="67" on="0"/>
        <pt x="304" y="73" on="1"/>
        <pt x="323" y="15" on="1"/>
        <pt x="302" y="8" on="0"/>
        <pt x="283" y="3" on="1"/>
        <pt x="266" y="-2" on="0"/>
        <pt x="228" y="-8" on="0"/>
        <pt x="213" y="-8" on="1"/>
        <pt x="180" y="-8" on="0"/>
        <pt x="121" y="16" on="0"/>
        <pt x="77" y="58" on="0"/>
        <pt x="52" y="116" on="0"/>
        <pt x="52" y="151" on="1"/>
        <pt x="52" y="354" on="1"/>
        <pt x="52" y="388" on="0"/>
        <pt x="77" y="446" on="0"/>
        <pt x="120" y="488" on="0"/>
        <pt x="179" y="511" on="0"/>
        <pt x="212" y="511" on="1"/>
        <pt x="228" y="511" on="0"/>
        <pt x="264" y="502" on="0"/>
        <pt x="281" y="497" on="1"/>
        <pt x="299" y="491" on="0"/>
        <pt x="319" y="483" on="1"/>
        <pt x="303" y="428" on="1"/>
        <pt x="287" y="434" on="0"/>
        <pt x="270" y="438" on="1"/>
        <pt x="256" y="442" on="0"/>
        <pt x="224" y="449" on="0"/>
        <pt x="212" y="449" on="1"/>
        <pt x="172" y="449" on="0"/>
        <pt x="114" y="397" on="0"/>
        <pt x="114" y="354" on="1"/>
      </contour>
    </TTGlyph>
    <TTGlyph name="caron" xMin="58" yMin="608" xMax="333" yMax="743">
      <contour>
        <pt x="122" y="743" on="1"/>
        <pt x="195" y="667" on="1"/>
        <pt x="268" y="743" on="1"/>
        <pt x="333" y="743" on="1"/>
        <pt x="225" y="608" on="1"/>
        <pt x="166" y="608" on="1"/>
        <pt x="58" y="743" on="1"/>
      </contour>
    </TTGlyph>
    <TTGlyph name="ccedilla" xMin="52" yMin="-218" xMax="323" yMax="511">
      <component glyphName="c" x="0" y="0" flags="0x1204"/>
      <component glyphName="cedilla" x="3" y="0" flags="0x1004"/>
    </TTGlyph>
    <TTGlyph name="cedilla" xMin="137" yMin="-218" xMax="237" yMax="-31">
      <contour>
        <pt x="237" y="-89" on="1"/>
        <pt x="237" y="-145" on="0"/>
        <pt x="202" y="-204" on="0"/>
        <pt x="173" y="-218" on="1"/>
        <pt x="137" y="-172" on="1"/>
        <pt x="155" y="-164" on="0"/>
        <pt x="177" y="-120" on="0"/>
        <pt x="177" y="-88" on="1"/>
        <pt x="177" y="-31" on="1"/>
        <pt x="237" y="-31" on="1"/>
        <pt x="237" y="-89" on="1"/>
      </contour>
    </TTGlyph>
    <TTGlyph name="cent" xMin="48" yMin="-127" xMax="315" yMax="633">
      <contour>
        <pt x="165" y="633" on="1"/>
        <pt x="227" y="633" on="1"/>
        <pt x="227" y="510" on="1"/>
        <pt x="241" y="508" on="0"/>
        <pt x="273" y="500" on="0"/>
        <pt x="286" y="495" on="1"/>
        <pt x="301" y="490" on="0"/>
        <pt x="315" y="484" on="1"/>
        <pt x="299" y="429" on="1"/>
        <pt x="283" y="435" on="0"/>
        <pt x="266" y="439" on="1"/>
        <pt x="252" y="443" on="0"/>
        <pt x="220" y="450" on="0"/>
        <pt x="208" y="450" on="1"/>
        <pt x="168" y="450" on="0"/>
        <pt x="110" y="398" on="0"/>
        <pt x="110" y="355" on="1"/>
        <pt x="110" y="152" on="1"/>
        <pt x="110" y="107" on="0"/>
        <pt x="169" y="55" on="0"/>
        <pt x="209" y="55" on="1"/>
        <pt x="217" y="55" on="0"/>
        <pt x="248" y="60" on="0"/>
        <pt x="263" y="64" on="1"/>
        <pt x="281" y="68" on="0"/>
        <pt x="300" y="74" on="1"/>
        <pt x="315" y="18" on="1"/>
        <pt x="300" y="12" on="0"/>
        <pt x="285" y="7" on="1"/>
        <pt x="272" y="2" on="0"/>
        <pt x="241" y="-5" on="0"/>
        <pt x="227" y="-6" on="1"/>
        <pt x="227" y="-127" on="1"/>
        <pt x="165" y="-127" on="1"/>
        <pt x="165" y="-2" on="1"/>
        <pt x="141" y="5" on="0"/>
        <pt x="99" y="35" on="0"/>
        <pt x="67" y="75" on="0"/>
        <pt x="48" y="124" on="0"/>
        <pt x="48" y="152" on="1"/>
        <pt x="48" y="355" on="1"/>
        <pt x="48" y="412" on="0"/>
        <pt x="116" y="493" on="0"/>
        <pt x="165" y="507" on="1"/>
      </contour>
    </TTGlyph>
    <TTGlyph name="circumflex" xMin="57" yMin="609" xMax="332" yMax="744">
      <contour>
        <pt x="268" y="609" on="1"/>
        <pt x="195" y="685" on="1"/>
        <pt x="122" y="609" on="1"/>
        <pt x="57" y="609" on="1"/>
        <pt x="165" y="744" on="1"/>
        <pt x="224" y="744" on="1"/>
        <pt x="332" y="609" on="1"/>
      </contour>
    </TTGlyph>
    <TTGlyph name="colon" xMin="58" yMin="1" xMax="140" yMax="413">
      <contour>
        <pt x="59" y="312" on="1"/>
        <pt x="59" y="413" on="1"/>
        <pt x="140" y="413" on="1"/>
        <pt x="140" y="312" on="1"/>
      </contour>
      <contour>
        <pt x="58" y="1" on="1"/>
        <pt x="58" y="100" on="1"/>
        <pt x="139" y="100" on="1"/>
        <pt x="139" y="1" on="1"/>
      </contour>
    </TTGlyph>
    <TTGlyph name="comma" xMin="15" yMin="-91" xMax="128" yMax="111">
      <contour>
        <pt x="128" y="54" on="1"/>
        <pt x="128" y="-3" on="0"/>
        <pt x="77" y="-74" on="0"/>
        <pt x="34" y="-91" on="1"/>
        <pt x="15" y="-21" on="1"/>
        <pt x="32" y="-13" on="0"/>
        <pt x="57" y="21" on="0"/>
        <pt x="57" y="54" on="1"/>
        <pt x="57" y="111" on="1"/>
        <pt x="128" y="111" on="1"/>
        <pt x="128" y="54" on="1"/>
      </contour>
    </TTGlyph>
    <TTGlyph name="copyright" xMin="40" yMin="-10" xMax="751" yMax="702">
      <contour>
        <pt x="751" y="346" on="1"/>
        <pt x="751" y="272" on="0"/>
        <pt x="695" y="143" on="0"/>
        <pt x="599" y="46" on="0"/>
        <pt x="470" y="-10" on="0"/>
        <pt x="396" y="-10" on="1"/>
        <pt x="322" y="-10" on="0"/>
        <pt x="193" y="46" on="0"/>
        <pt x="96" y="143" on="0"/>
        <pt x="40" y="272" on="0"/>
        <pt x="40" y="346" on="1"/>
        <pt x="40" y="420" on="0"/>
        <pt x="96" y="550" on="0"/>
        <pt x="193" y="646" on="0"/>
        <pt x="322" y="702" on="0"/>
        <pt x="396" y="702" on="1"/>
        <pt x="470" y="702" on="0"/>
        <pt x="599" y="646" on="0"/>
        <pt x="695" y="550" on="0"/>
        <pt x="751" y="420" on="0"/>
      </contour>
      <contour>
        <pt x="689" y="346" on="1"/>
        <pt x="689" y="407" on="0"/>
        <pt x="643" y="514" on="0"/>
        <pt x="563" y="594" on="0"/>
        <pt x="457" y="640" on="0"/>
        <pt x="396" y="640" on="1"/>
        <pt x="336" y="640" on="0"/>
        <pt x="229" y="594" on="0"/>
        <pt x="149" y="515" on="0"/>
        <pt x="102" y="407" on="0"/>
        <pt x="102" y="346" on="1"/>
        <pt x="102" y="285" on="0"/>
        <pt x="149" y="178" on="0"/>
        <pt x="229" y="99" on="0"/>
        <pt x="336" y="53" on="0"/>
        <pt x="396" y="53" on="1"/>
        <pt x="457" y="53" on="0"/>
        <pt x="563" y="99" on="0"/>
        <pt x="643" y="178" on="0"/>
        <pt x="689" y="285" on="0"/>
      </contour>
      <contour>
        <pt x="316" y="270" on="1"/>
        <pt x="316" y="231" on="0"/>
        <pt x="370" y="182" on="0"/>
        <pt x="407" y="182" on="1"/>
        <pt x="419" y="182" on="0"/>
        <pt x="460" y="191" on="0"/>
        <pt x="470" y="194" on="1"/>
        <pt x="473" y="186" on="0"/>
        <pt x="476" y="180" on="0"/>
        <pt x="478" y="172" on="1"/>
        <pt x="464" y="168" on="0"/>
        <pt x="451" y="165" on="1"/>
        <pt x="440" y="162" on="0"/>
        <pt x="415" y="158" on="0"/>
        <pt x="407" y="158" on="1"/>
        <pt x="383" y="158" on="0"/>
        <pt x="342" y="174" on="0"/>
        <pt x="310" y="204" on="0"/>
        <pt x="292" y="245" on="0"/>
        <pt x="292" y="270" on="1"/>
        <pt x="292" y="435" on="1"/>
        <pt x="292" y="459" on="0"/>
        <pt x="310" y="500" on="0"/>
        <pt x="341" y="530" on="0"/>
        <pt x="382" y="546" on="0"/>
        <pt x="406" y="546" on="1"/>
        <pt x="426" y="546" on="0"/>
        <pt x="466" y="533" on="0"/>
        <pt x="474" y="530" on="1"/>
        <pt x="469" y="510" on="1"/>
        <pt x="457" y="512" on="0"/>
        <pt x="446" y="515" on="1"/>
        <pt x="436" y="517" on="0"/>
        <pt x="414" y="521" on="0"/>
        <pt x="406" y="521" on="1"/>
        <pt x="369" y="521" on="0"/>
        <pt x="316" y="473" on="0"/>
        <pt x="316" y="435" on="1"/>
      </contour>
    </TTGlyph>
    <TTGlyph name="d" xMin="52" yMin="-12" xMax="380" yMax="694">
      <contour>
        <pt x="292" y="414" on="1"/>
        <pt x="262" y="432" on="0"/>
        <pt x="203" y="446" on="0"/>
        <pt x="188" y="446" on="1"/>
        <pt x="157" y="446" on="0"/>
        <pt x="114" y="400" on="0"/>
        <pt x="114" y="368" on="1"/>
        <pt x="114" y="131" on="1"/>
        <pt x="114" y="99" on="0"/>
        <pt x="157" y="54" on="0"/>
        <pt x="187" y="54" on="1"/>
        <pt x="196" y="54" on="0"/>
        <pt x="227" y="59" on="0"/>
        <pt x="260" y="67" on="0"/>
        <pt x="287" y="78" on="0"/>
        <pt x="292" y="85" on="1"/>
      </contour>
      <contour>
        <pt x="293" y="694" on="1"/>
        <pt x="355" y="694" on="1"/>
        <pt x="355" y="56" on="1"/>
        <pt x="380" y="32" on="1"/>
        <pt x="335" y="-12" on="1"/>
        <pt x="305" y="18" on="1"/>
        <pt x="275" y="3" on="0"/>
        <pt x="208" y="-9" on="0"/>
        <pt x="188" y="-9" on="1"/>
        <pt x="159" y="-9" on="0"/>
        <pt x="110" y="13" on="0"/>
        <pt x="73" y="52" on="0"/>
        <pt x="52" y="105" on="0"/>
        <pt x="52" y="135" on="1"/>
        <pt x="52" y="365" on="1"/>
        <pt x="52" y="395" on="0"/>
        <pt x="73" y="447" on="0"/>
        <pt x="110" y="486" on="0"/>
        <pt x="159" y="509" on="0"/>
        <pt x="188" y="509" on="1"/>
        <pt x="203" y="509" on="0"/>
        <pt x="258" y="502" on="0"/>
        <pt x="293" y="485" on="1"/>
      </contour>
    </TTGlyph>
    <TTGlyph name="degree" xMin="36" yMin="448" xMax="293" yMax="705">
      <contour>
        <pt x="293" y="577" on="1"/>
        <pt x="293" y="551" on="0"/>
        <pt x="273" y="504" on="0"/>
        <pt x="238" y="469" on="0"/>
        <pt x="191" y="448" on="0"/>
        <pt x="164" y="448" on="1"/>
        <pt x="138" y="448" on="0"/>
        <pt x="91" y="469" on="0"/>
        <pt x="56" y="504" on="0"/>
        <pt x="36" y="551" on="0"/>
        <pt x="36" y="577" on="1"/>
        <pt x="36" y="604" on="0"/>
        <pt x="56" y="650" on="0"/>
        <pt x="91" y="685" on="0"/>
        <pt x="138" y="705" on="0"/>
        <pt x="164" y="705" on="1"/>
        <pt x="191" y="705" on="0"/>
        <pt x="238" y="685" on="0"/>
        <pt x="273" y="651" on="0"/>
        <pt x="293" y="604" on="0"/>
      </contour>
      <contour>
        <pt x="235" y="577" on="1"/>
        <pt x="235" y="606" on="0"/>
        <pt x="193" y="647" on="0"/>
        <pt x="164" y="647" on="1"/>
        <pt x="135" y="647" on="0"/>
        <pt x="94" y="606" on="0"/>
        <pt x="94" y="577" on="1"/>
        <pt x="94" y="548" on="0"/>
        <pt x="135" y="508" on="0"/>
        <pt x="164" y="508" on="1"/>
        <pt x="193" y="508" on="0"/>
        <pt x="235" y="548" on="0"/>
      </contour>
    </TTGlyph>
    <TTGlyph name="dieresis" xMin="98" yMin="584" xMax="360" yMax="672">
      <contour>
        <pt x="290" y="584" on="1"/>
        <pt x="290" y="672" on="1"/>
        <pt x="360" y="672" on="1"/>
        <pt x="360" y="584" on="1"/>
      </contour>
      <contour>
        <pt x="98" y="584" on="1"/>
        <pt x="98" y="672" on="1"/>
        <pt x="168" y="672" on="1"/>
        <pt x="168" y="584" on="1"/>
      </contour>
    </TTGlyph>
    <TTGlyph name="divide" xMin="50" yMin="1" xMax="397" yMax="413">
      <component glyphName="colon" x="130" y="0" flags="0x1004"/>
      <component glyphName="minus" x="-16" y="-71" flags="0x1004"/>
    </TTGlyph>
    <TTGlyph name="dollar" xMin="44" yMin="-71" xMax="434" yMax="757">
      <contour>
        <pt x="199" y="757" on="1"/>
        <pt x="266" y="757" on="1"/>
        <pt x="266" y="689" on="1"/>
        <pt x="277" y="687" on="0"/>
        <pt x="293" y="681" on="0"/>
        <pt x="301" y="678" on="1"/>
        <pt x="390" y="642" on="1"/>
        <pt x="368" y="574" on="1"/>
        <pt x="344" y="585" on="1"/>
        <pt x="332" y="591" on="0"/>
        <pt x="303" y="604" on="0"/>
        <pt x="273" y="615" on="0"/>
        <pt x="244" y="623" on="0"/>
        <pt x="232" y="623" on="1"/>
        <pt x="207" y="623" on="0"/>
        <pt x="165" y="602" on="0"/>
        <pt x="134" y="567" on="0"/>
        <pt x="117" y="521" on="0"/>
        <pt x="117" y="496" on="1"/>
        <pt x="117" y="467" on="0"/>
        <pt x="138" y="425" on="0"/>
        <pt x="172" y="396" on="0"/>
        <pt x="217" y="382" on="0"/>
        <pt x="240" y="382" on="1"/>
        <pt x="280" y="382" on="0"/>
        <pt x="351" y="355" on="0"/>
        <pt x="403" y="306" on="0"/>
        <pt x="434" y="238" on="0"/>
        <pt x="434" y="197" on="1"/>
        <pt x="434" y="158" on="0"/>
        <pt x="408" y="90" on="0"/>
        <pt x="363" y="39" on="0"/>
        <pt x="302" y="5" on="0"/>
        <pt x="266" y="1" on="1"/>
        <pt x="266" y="-71" on="1"/>
        <pt x="199" y="-71" on="1"/>
        <pt x="199" y="5" on="1"/>
        <pt x="177" y="12" on="0"/>
        <pt x="130" y="30" on="0"/>
        <pt x="88" y="47" on="0"/>
        <pt x="53" y="62" on="0"/>
        <pt x="44" y="67" on="1"/>
        <pt x="67" y="132" on="1"/>
        <pt x="118" y="109" on="0"/>
        <pt x="179" y="84" on="0"/>
        <pt x="214" y="72" on="0"/>
        <pt x="232" y="69" on="0"/>
        <pt x="242" y="69" on="1"/>
        <pt x="268" y="69" on="0"/>
        <pt x="312" y="88" on="0"/>
        <pt x="345" y="122" on="0"/>
        <pt x="364" y="169" on="0"/>
        <pt x="364" y="196" on="1"/>
        <pt x="364" y="224" on="0"/>
        <pt x="342" y="266" on="0"/>
        <pt x="307" y="294" on="0"/>
        <pt x="263" y="308" on="0"/>
        <pt x="240" y="308" on="1"/>
        <pt x="199" y="308" on="0"/>
        <pt x="129" y="335" on="0"/>
        <pt x="76" y="385" on="0"/>
        <pt x="46" y="452" on="0"/>
        <pt x="46" y="493" on="1"/>
        <pt x="46" y="529" on="0"/>
        <pt x="69" y="595" on="0"/>
        <pt x="110" y="648" on="0"/>
        <pt x="166" y="684" on="0"/>
        <pt x="199" y="690" on="1"/>
      </contour>
    </TTGlyph>
    <TTGlyph name="e" xMin="52" yMin="-9" xMax="365" yMax="510">
      <contour>
        <pt x="227" y="248" on="1"/>
        <pt x="258" y="248" on="0"/>
        <pt x="301" y="297" on="0"/>
        <pt x="301" y="329" on="1"/>
        <pt x="301" y="370" on="1"/>
        <pt x="301" y="391" on="0"/>
        <pt x="285" y="420" on="0"/>
        <pt x="258" y="438" on="0"/>
        <pt x="222" y="446" on="0"/>
        <pt x="203" y="446" on="1"/>
        <pt x="169" y="446" on="0"/>
        <pt x="117" y="405" on="0"/>
        <pt x="117" y="370" on="1"/>
        <pt x="117" y="249" on="1"/>
      </contour>
      <contour>
        <pt x="52" y="365" on="1"/>
        <pt x="52" y="395" on="0"/>
        <pt x="74" y="448" on="0"/>
        <pt x="112" y="487" on="0"/>
        <pt x="163" y="510" on="0"/>
        <pt x="192" y="510" on="1"/>
        <pt x="225" y="510" on="1"/>
        <pt x="254" y="510" on="0"/>
        <pt x="305" y="488" on="0"/>
        <pt x="343" y="449" on="0"/>
        <pt x="365" y="396" on="0"/>
        <pt x="365" y="365" on="1"/>
        <pt x="365" y="333" on="1"/>
        <pt x="365" y="290" on="0"/>
        <pt x="335" y="232" on="0"/>
        <pt x="282" y="196" on="0"/>
        <pt x="212" y="180" on="0"/>
        <pt x="173" y="180" on="1"/>
        <pt x="145" y="180" on="0"/>
        <pt x="117" y="183" on="1"/>
        <pt x="117" y="133" on="1"/>
        <pt x="124" y="98" on="0"/>
        <pt x="179" y="54" on="0"/>
        <pt x="214" y="54" on="1"/>
        <pt x="216" y="54" on="0"/>
        <pt x="259" y="63" on="0"/>
        <pt x="284" y="69" on="1"/>
        <pt x="313" y="75" on="0"/>
        <pt x="348" y="84" on="1"/>
        <pt x="364" y="18" on="1"/>
        <pt x="326" y="10" on="0"/>
        <pt x="294" y="4" on="1"/>
        <pt x="267" y="-1" on="0"/>
        <pt x="219" y="-9" on="0"/>
        <pt x="214" y="-9" on="1"/>
        <pt x="181" y="-9" on="0"/>
        <pt x="122" y="15" on="0"/>
        <pt x="78" y="57" on="0"/>
        <pt x="52" y="115" on="0"/>
        <pt x="52" y="150" on="1"/>
      </contour>
    </TTGlyph>
    <TTGlyph name="eacute" xMin="52" yMin="-9" xMax="365" yMax="731">
      <component glyphName="e" x="0" y="0" flags="0x1204"/>
      <component glyphName="acute" x="-19" y="0" flags="0x1004"/>
    </TTGlyph>
    <TTGlyph name="ecircumflex" xMin="52" yMin="-9" xMax="365" yMax="744">
      <component glyphName="e" x="0" y="0" flags="0x1204"/>
      <component glyphName="circumflex" x="9" y="0" flags="0x1004"/>
    </TTGlyph>
    <TTGlyph name="edieresis" xMin="52" yMin="-9" xMax="365" yMax="672">
      <component glyphName="e" x="0" y="0" flags="0x1204"/>
      <component glyphName="dieresis" x="-17" y="0" flags="0x1004"/>
    </TTGlyph>
    <TTGlyph name="egrave" xMin="52" yMin="-9" xMax="365" yMax="730">
      <component glyphName="e" x="0" y="0" flags="0x1204"/>
      <component glyphName="grave" x="-16" y="0" flags="0x1004"/>
    </TTGlyph>
    <TTGlyph name="eight" xMin="64" yMin="-9" xMax="369" yMax="651">
      <contour>
        <pt x="232" y="52" on="1"/>
        <pt x="263" y="52" on="0"/>
        <pt x="306" y="99" on="0"/>
        <pt x="306" y="131" on="1"/>
        <pt x="306" y="205" on="1"/>
        <pt x="306" y="243" on="0"/>
        <pt x="251" y="280" on="0"/>
        <pt x="215" y="280" on="1"/>
        <pt x="180" y="280" on="0"/>
        <pt x="127" y="245" on="0"/>
        <pt x="127" y="205" on="1"/>
        <pt x="127" y="131" on="1"/>
        <pt x="127" y="99" on="0"/>
        <pt x="170" y="52" on="0"/>
        <pt x="201" y="52" on="1"/>
      </contour>
      <contour>
        <pt x="232" y="359" on="1"/>
        <pt x="263" y="359" on="0"/>
        <pt x="306" y="406" on="0"/>
        <pt x="306" y="439" on="1"/>
        <pt x="306" y="515" on="1"/>
        <pt x="306" y="550" on="0"/>
        <pt x="255" y="589" on="0"/>
        <pt x="222" y="589" on="1"/>
        <pt x="203" y="589" on="0"/>
        <pt x="169" y="582" on="0"/>
        <pt x="143" y="564" on="0"/>
        <pt x="127" y="536" on="0"/>
        <pt x="127" y="515" on="1"/>
        <pt x="127" y="439" on="1"/>
        <pt x="127" y="406" on="0"/>
        <pt x="170" y="359" on="0"/>
        <pt x="201" y="359" on="1"/>
      </contour>
      <contour>
        <pt x="64" y="211" on="1"/>
        <pt x="64" y="247" on="0"/>
        <pt x="96" y="305" on="0"/>
        <pt x="123" y="321" on="1"/>
        <pt x="96" y="340" on="0"/>
        <pt x="64" y="399" on="0"/>
        <pt x="64" y="436" on="1"/>
        <pt x="64" y="519" on="1"/>
        <pt x="64" y="556" on="0"/>
        <pt x="90" y="606" on="0"/>
        <pt x="135" y="637" on="0"/>
        <pt x="192" y="651" on="0"/>
        <pt x="224" y="651" on="1"/>
        <pt x="253" y="651" on="0"/>
        <pt x="305" y="633" on="0"/>
        <pt x="345" y="599" on="0"/>
        <pt x="369" y="550" on="0"/>
        <pt x="369" y="519" on="1"/>
        <pt x="369" y="436" on="1"/>
        <pt x="369" y="397" on="0"/>
        <pt x="336" y="337" on="0"/>
        <pt x="307" y="320" on="1"/>
        <pt x="335" y="303" on="0"/>
        <pt x="369" y="249" on="0"/>
        <pt x="369" y="211" on="1"/>
        <pt x="369" y="128" on="1"/>
        <pt x="369" y="100" on="0"/>
        <pt x="349" y="50" on="0"/>
        <pt x="314" y="13" on="0"/>
        <pt x="267" y="-9" on="0"/>
        <pt x="240" y="-9" on="1"/>
        <pt x="193" y="-9" on="1"/>
        <pt x="166" y="-9" on="0"/>
        <pt x="119" y="13" on="0"/>
        <pt x="84" y="50" on="0"/>
        <pt x="64" y="100" on="0"/>
        <pt x="64" y="128" on="1"/>
      </contour>
    </TTGlyph>
    <TTGlyph name="ellipsis" xMin="54" yMin="5" xMax="448" yMax="104">
      <contour>
        <pt x="54" y="5" on="1"/>
        <pt x="54" y="104" on="1"/>
        <pt x="135" y="104" on="1"/>
        <pt x="135" y="5" on="1"/>
      </contour>
      <contour>
        <pt x="211" y="5" on="1"/>
        <pt x="211" y="104" on="1"/>
        <pt x="292" y="104" on="1"/>
        <pt x="292" y="5" on="1"/>
      </contour>
      <contour>
        <pt x="367" y="5" on="1"/>
        <pt x="367" y="104" on="1"/>
        <pt x="448" y="104" on="1"/>
        <pt x="448" y="5" on="1"/>
      </contour>
    </TTGlyph>
    <TTGlyph name="emdash" xMin="60" yMin="203" xMax="671" yMax="269">
      <contour>
        <pt x="60" y="203" on="1"/>
        <pt x="60" y="269" on="1"/>
        <pt x="671" y="269" on="1"/>
        <pt x="671" y="203" on="1"/>
      </contour>
    </TTGlyph>
    <TTGlyph name="endash" xMin="61" yMin="203" xMax="408" yMax="269">
      <contour>
        <pt x="61" y="203" on="1"/>
        <pt x="61" y="269" on="1"/>
        <pt x="408" y="269" on="1"/>
        <pt x="408" y="203" on="1"/>
      </contour>
    </TTGlyph>
    <TTGlyph name="equal" xMin="66" yMin="170" xMax="413" yMax="436">
      <contour>
        <pt x="66" y="360" on="1"/>
        <pt x="66" y="436" on="1"/>
        <pt x="413" y="436" on="1"/>
        <pt x="413" y="360" on="1"/>
      </contour>
      <contour>
        <pt x="66" y="170" on="1"/>
        <pt x="66" y="246" on="1"/>
        <pt x="413" y="246" on="1"/>
        <pt x="413" y="170" on="1"/>
      </contour>
    </TTGlyph>
    <TTGlyph name="exclam" xMin="65" yMin="1" xMax="130" yMax="695">
      <contour>
        <pt x="66" y="137" on="1"/>
        <pt x="66" y="695" on="1"/>
        <pt x="130" y="695" on="1"/>
        <pt x="130" y="137" on="1"/>
      </contour>
      <contour>
        <pt x="65" y="1" on="1"/>
        <pt x="65" y="102" on="1"/>
        <pt x="130" y="102" on="1"/>
        <pt x="130" y="1" on="1"/>
      </contour>
    </TTGlyph>
    <TTGlyph name="exclamdown" xMin="65" yMin="1" xMax="130" yMax="695">
      <contour>
        <pt x="130" y="558" on="1"/>
        <pt x="130" y="1" on="1"/>
        <pt x="66" y="1" on="1"/>
        <pt x="66" y="558" on="1"/>
      </contour>
      <contour>
        <pt x="130" y="695" on="1"/>
        <pt x="130" y="593" on="1"/>
        <pt x="65" y="593" on="1"/>
        <pt x="65" y="695" on="1"/>
      </contour>
    </TTGlyph>
    <TTGlyph name="f" xMin="25" yMin="0" xMax="268" yMax="703">
      <contour>
        <pt x="176" y="0" on="1"/>
        <pt x="110" y="0" on="1"/>
        <pt x="110" y="439" on="1"/>
        <pt x="25" y="439" on="1"/>
        <pt x="25" y="500" on="1"/>
        <pt x="111" y="500" on="1"/>
        <pt x="111" y="569" on="1"/>
        <pt x="111" y="640" on="0"/>
        <pt x="181" y="703" on="0"/>
        <pt x="232" y="703" on="1"/>
        <pt x="256" y="703" on="1"/>
        <pt x="256" y="637" on="1"/>
        <pt x="237" y="637" on="1"/>
        <pt x="213" y="637" on="0"/>
        <pt x="175" y="611" on="0"/>
        <pt x="175" y="576" on="1"/>
        <pt x="175" y="500" on="1"/>
        <pt x="268" y="500" on="1"/>
        <pt x="268" y="439" on="1"/>
        <pt x="176" y="439" on="1"/>
      </contour>
    </TTGlyph>
    <TTGlyph name="fi" xMin="25" yMin="0" xMax="403" yMax="703">
      <contour>
        <pt x="338" y="695" on="1"/>
        <pt x="403" y="695" on="1"/>
        <pt x="403" y="605" on="1"/>
        <pt x="338" y="605" on="1"/>
      </contour>
      <contour>
        <pt x="175" y="500" on="1"/>
        <pt x="403" y="500" on="1"/>
        <pt x="403" y="0" on="1"/>
        <pt x="338" y="0" on="1"/>
        <pt x="338" y="439" on="1"/>
        <pt x="176" y="439" on="1"/>
        <pt x="176" y="0" on="1"/>
        <pt x="111" y="0" on="1"/>
        <pt x="111" y="439" on="1"/>
        <pt x="25" y="439" on="1"/>
        <pt x="25" y="500" on="1"/>
        <pt x="112" y="500" on="1"/>
        <pt x="112" y="569" on="1"/>
        <pt x="112" y="640" on="0"/>
        <pt x="181" y="703" on="0"/>
        <pt x="232" y="703" on="1"/>
        <pt x="257" y="703" on="1"/>
        <pt x="257" y="637" on="1"/>
        <pt x="237" y="637" on="1"/>
        <pt x="213" y="637" on="0"/>
        <pt x="175" y="611" on="0"/>
        <pt x="175" y="576" on="1"/>
      </contour>
    </TTGlyph>
    <TTGlyph name="five" xMin="60" yMin="-8" xMax="383" yMax="646">
      <contour>
        <pt x="383" y="196" on="1"/>
        <pt x="383" y="154" on="0"/>
        <pt x="363" y="80" on="0"/>
        <pt x="322" y="25" on="0"/>
        <pt x="262" y="-8" on="0"/>
        <pt x="222" y="-8" on="1"/>
        <pt x="201" y="-8" on="0"/>
        <pt x="146" y="6" on="0"/>
        <pt x="95" y="24" on="0"/>
        <pt x="60" y="39" on="0"/>
        <pt x="60" y="39" on="1"/>
        <pt x="80" y="101" on="1"/>
        <pt x="105" y="90" on="0"/>
        <pt x="131" y="82" on="1"/>
        <pt x="153" y="74" on="0"/>
        <pt x="200" y="63" on="0"/>
        <pt x="220" y="63" on="1"/>
        <pt x="245" y="63" on="0"/>
        <pt x="281" y="85" on="0"/>
        <pt x="304" y="121" on="0"/>
        <pt x="315" y="169" on="0"/>
        <pt x="315" y="196" on="1"/>
        <pt x="315" y="225" on="1"/>
        <pt x="315" y="252" on="0"/>
        <pt x="304" y="300" on="0"/>
        <pt x="280" y="336" on="0"/>
        <pt x="244" y="357" on="0"/>
        <pt x="219" y="357" on="1"/>
        <pt x="62" y="357" on="1"/>
        <pt x="62" y="646" on="1"/>
        <pt x="329" y="646" on="1"/>
        <pt x="329" y="582" on="1"/>
        <pt x="133" y="582" on="1"/>
        <pt x="133" y="423" on="1"/>
        <pt x="220" y="423" on="1"/>
        <pt x="260" y="423" on="0"/>
        <pt x="322" y="393" on="0"/>
        <pt x="362" y="340" on="0"/>
        <pt x="383" y="267" on="0"/>
        <pt x="383" y="225" on="1"/>
        <pt x="383" y="196" on="1"/>
      </contour>
    </TTGlyph>
    <TTGlyph name="fl" xMin="25" yMin="0" xMax="482" yMax="703">
      <contour>
        <pt x="337" y="439" on="1"/>
        <pt x="176" y="439" on="1"/>
        <pt x="176" y="0" on="1"/>
        <pt x="110" y="0" on="1"/>
        <pt x="110" y="439" on="1"/>
        <pt x="25" y="439" on="1"/>
        <pt x="25" y="500" on="1"/>
        <pt x="111" y="500" on="1"/>
        <pt x="111" y="569" on="1"/>
        <pt x="111" y="640" on="0"/>
        <pt x="181" y="703" on="0"/>
        <pt x="232" y="703" on="1"/>
        <pt x="256" y="703" on="1"/>
        <pt x="256" y="637" on="1"/>
        <pt x="237" y="637" on="1"/>
        <pt x="213" y="637" on="0"/>
        <pt x="175" y="611" on="0"/>
        <pt x="175" y="576" on="1"/>
        <pt x="175" y="500" on="1"/>
        <pt x="337" y="500" on="1"/>
        <pt x="337" y="695" on="1"/>
        <pt x="401" y="695" on="1"/>
        <pt x="401" y="130" on="1"/>
        <pt x="401" y="94" on="0"/>
        <pt x="438" y="67" on="0"/>
        <pt x="463" y="67" on="1"/>
        <pt x="482" y="67" on="1"/>
        <pt x="482" y="1" on="1"/>
        <pt x="458" y="1" on="1"/>
        <pt x="407" y="1" on="0"/>
        <pt x="337" y="64" on="0"/>
        <pt x="337" y="135" on="1"/>
      </contour>
    </TTGlyph>
    <TTGlyph name="four" xMin="31" yMin="0" xMax="343" yMax="646">
      <contour>
        <pt x="277" y="0" on="1"/>
        <pt x="277" y="190" on="1"/>
        <pt x="31" y="190" on="1"/>
        <pt x="31" y="256" on="1"/>
        <pt x="180" y="646" on="1"/>
        <pt x="248" y="646" on="1"/>
        <pt x="104" y="256" on="1"/>
        <pt x="277" y="256" on="1"/>
        <pt x="277" y="367" on="1"/>
        <pt x="343" y="367" on="1"/>
        <pt x="343" y="0" on="1"/>
      </contour>
    </TTGlyph>
    <TTGlyph name="fraction" xMin="26" yMin="1" xMax="198" yMax="694">
      <contour>
        <pt x="126" y="694" on="1"/>
        <pt x="198" y="694" on="1"/>
        <pt x="98" y="1" on="1"/>
        <pt x="26" y="1" on="1"/>
      </contour>
    </TTGlyph>
    <TTGlyph name="g" xMin="51" yMin="-252" xMax="381" yMax="513">
      <contour>
        <pt x="294" y="416" on="1"/>
        <pt x="256" y="436" on="0"/>
        <pt x="206" y="446" on="0"/>
        <pt x="189" y="446" on="1"/>
        <pt x="159" y="446" on="0"/>
        <pt x="116" y="401" on="0"/>
        <pt x="116" y="370" on="1"/>
        <pt x="116" y="132" on="1"/>
        <pt x="116" y="100" on="0"/>
        <pt x="159" y="54" on="0"/>
        <pt x="190" y="54" on="1"/>
        <pt x="198" y="54" on="0"/>
        <pt x="214" y="55" on="0"/>
        <pt x="237" y="61" on="0"/>
        <pt x="270" y="73" on="0"/>
        <pt x="294" y="85" on="1"/>
      </contour>
      <contour>
        <pt x="357" y="-107" on="1"/>
        <pt x="357" y="-145" on="0"/>
        <pt x="332" y="-200" on="0"/>
        <pt x="288" y="-235" on="0"/>
        <pt x="231" y="-252" on="0"/>
        <pt x="198" y="-252" on="1"/>
        <pt x="182" y="-252" on="0"/>
        <pt x="132" y="-242" on="0"/>
        <pt x="109" y="-236" on="1"/>
        <pt x="81" y="-229" on="0"/>
        <pt x="51" y="-219" on="1"/>
        <pt x="69" y="-160" on="1"/>
        <pt x="98" y="-169" on="0"/>
        <pt x="124" y="-176" on="1"/>
        <pt x="146" y="-182" on="0"/>
        <pt x="188" y="-192" on="0"/>
        <pt x="198" y="-192" on="1"/>
        <pt x="237" y="-192" on="0"/>
        <pt x="295" y="-150" on="0"/>
        <pt x="295" y="-108" on="1"/>
        <pt x="295" y="12" on="1"/>
        <pt x="263" y="-4" on="0"/>
        <pt x="217" y="-9" on="0"/>
        <pt x="200" y="-9" on="1"/>
        <pt x="190" y="-9" on="1"/>
        <pt x="161" y="-9" on="0"/>
        <pt x="112" y="14" on="0"/>
        <pt x="74" y="53" on="0"/>
        <pt x="53" y="105" on="0"/>
        <pt x="53" y="135" on="1"/>
        <pt x="53" y="366" on="1"/>
        <pt x="53" y="396" on="0"/>
        <pt x="74" y="448" on="0"/>
        <pt x="112" y="487" on="0"/>
        <pt x="161" y="510" on="0"/>
        <pt x="190" y="510" on="1"/>
        <pt x="212" y="510" on="0"/>
        <pt x="271" y="496" on="0"/>
        <pt x="305" y="482" on="1"/>
        <pt x="336" y="513" on="1"/>
        <pt x="381" y="468" on="1"/>
        <pt x="357" y="445" on="1"/>
      </contour>
    </TTGlyph>
    <TTGlyph name="germandbls" xMin="61" yMin="0" xMax="460" yMax="705">
      <contour>
        <pt x="460" y="188" on="1"/>
        <pt x="460" y="164" on="0"/>
        <pt x="445" y="100" on="0"/>
        <pt x="405" y="41" on="0"/>
        <pt x="333" y="0" on="0"/>
        <pt x="275" y="0" on="1"/>
        <pt x="217" y="0" on="1"/>
        <pt x="217" y="66" on="1"/>
        <pt x="273" y="66" on="1"/>
        <pt x="289" y="66" on="0"/>
        <pt x="330" y="75" on="0"/>
        <pt x="367" y="101" on="0"/>
        <pt x="392" y="149" on="0"/>
        <pt x="392" y="188" on="1"/>
        <pt x="392" y="230" on="1"/>
        <pt x="392" y="269" on="0"/>
        <pt x="369" y="317" on="0"/>
        <pt x="336" y="343" on="0"/>
        <pt x="298" y="351" on="0"/>
        <pt x="282" y="351" on="1"/>
        <pt x="252" y="351" on="1"/>
        <pt x="252" y="417" on="1"/>
        <pt x="284" y="417" on="1"/>
        <pt x="326" y="417" on="0"/>
        <pt x="367" y="471" on="0"/>
        <pt x="367" y="518" on="1"/>
        <pt x="367" y="557" on="0"/>
        <pt x="342" y="605" on="0"/>
        <pt x="306" y="631" on="0"/>
        <pt x="265" y="639" on="0"/>
        <pt x="249" y="639" on="1"/>
        <pt x="233" y="639" on="0"/>
        <pt x="191" y="631" on="0"/>
        <pt x="154" y="605" on="0"/>
        <pt x="128" y="557" on="0"/>
        <pt x="128" y="518" on="1"/>
        <pt x="128" y="0" on="1"/>
        <pt x="61" y="0" on="1"/>
        <pt x="61" y="520" on="1"/>
        <pt x="61" y="542" on="0"/>
        <pt x="76" y="606" on="0"/>
        <pt x="117" y="664" on="0"/>
        <pt x="190" y="705" on="0"/>
        <pt x="249" y="705" on="1"/>
        <pt x="307" y="705" on="0"/>
        <pt x="379" y="664" on="0"/>
        <pt x="420" y="605" on="0"/>
        <pt x="434" y="541" on="0"/>
        <pt x="434" y="518" on="1"/>
        <pt x="434" y="480" on="0"/>
        <pt x="404" y="406" on="0"/>
        <pt x="371" y="388" on="1"/>
        <pt x="399" y="374" on="0"/>
        <pt x="434" y="334" on="0"/>
        <pt x="454" y="289" on="0"/>
        <pt x="460" y="247" on="0"/>
        <pt x="460" y="232" on="1"/>
        <pt x="460" y="188" on="1"/>
      </contour>
    </TTGlyph>
    <TTGlyph name="grave" xMin="86" yMin="573" xMax="266" yMax="730">
      <contour>
        <pt x="199" y="573" on="1"/>
        <pt x="86" y="730" on="1"/>
        <pt x="163" y="730" on="1"/>
        <pt x="266" y="573" on="1"/>
      </contour>
    </TTGlyph>
    <TTGlyph name="greater" xMin="68" yMin="169" xMax="438" yMax="439">
      <contour>
        <pt x="234" y="273" on="1"/>
        <pt x="233" y="273" on="1"/>
        <pt x="248" y="277" on="0"/>
        <pt x="293" y="285" on="0"/>
        <pt x="314" y="290" on="1"/>
        <pt x="358" y="300" on="1"/>
        <pt x="358" y="307" on="1"/>
        <pt x="234" y="335" on="1"/>
        <pt x="235" y="335" on="1"/>
        <pt x="68" y="371" on="1"/>
        <pt x="68" y="439" on="1"/>
        <pt x="438" y="353" on="1"/>
        <pt x="438" y="259" on="1"/>
        <pt x="68" y="169" on="1"/>
        <pt x="68" y="236" on="1"/>
      </contour>
    </TTGlyph>
    <TTGlyph name="h" xMin="61" yMin="0" xMax="365" yMax="695">
      <contour>
        <pt x="303" y="0" on="1"/>
        <pt x="303" y="369" on="1"/>
        <pt x="303" y="401" on="0"/>
        <pt x="259" y="446" on="0"/>
        <pt x="229" y="446" on="1"/>
        <pt x="212" y="446" on="0"/>
        <pt x="152" y="434" on="0"/>
        <pt x="124" y="415" on="1"/>
        <pt x="124" y="0" on="1"/>
        <pt x="61" y="0" on="1"/>
        <pt x="61" y="695" on="1"/>
        <pt x="124" y="695" on="1"/>
        <pt x="124" y="486" on="1"/>
        <pt x="162" y="506" on="0"/>
        <pt x="213" y="510" on="0"/>
        <pt x="229" y="510" on="1"/>
        <pt x="257" y="510" on="0"/>
        <pt x="307" y="487" on="0"/>
        <pt x="344" y="448" on="0"/>
        <pt x="365" y="396" on="0"/>
        <pt x="365" y="366" on="1"/>
        <pt x="365" y="0" on="1"/>
      </contour>
    </TTGlyph>
    <TTGlyph name="hyphen" xMin="58" yMin="314" xMax="305" yMax="390">
      <contour>
        <pt x="58" y="314" on="1"/>
        <pt x="58" y="390" on="1"/>
        <pt x="305" y="390" on="1"/>
        <pt x="305" y="314" on="1"/>
      </contour>
    </TTGlyph>
    <TTGlyph name="i" xMin="61" yMin="0" xMax="127" yMax="695">
      <contour>
        <pt x="61" y="695" on="1"/>
        <pt x="127" y="695" on="1"/>
        <pt x="127" y="605" on="1"/>
        <pt x="61" y="605" on="1"/>
      </contour>
      <contour>
        <pt x="61" y="500" on="1"/>
        <pt x="127" y="500" on="1"/>
        <pt x="127" y="0" on="1"/>
        <pt x="61" y="0" on="1"/>
      </contour>
    </TTGlyph>
    <TTGlyph name="iacute" xMin="61" yMin="0" xMax="241" yMax="738">
      <contour>
        <pt x="61" y="500" on="1"/>
        <pt x="127" y="500" on="1"/>
        <pt x="127" y="0" on="1"/>
        <pt x="61" y="0" on="1"/>
      </contour>
      <contour>
        <pt x="128" y="581" on="1"/>
        <pt x="61" y="581" on="1"/>
        <pt x="164" y="738" on="1"/>
        <pt x="241" y="738" on="1"/>
      </contour>
    </TTGlyph>
    <TTGlyph name="icircumflex" xMin="-44" yMin="0" xMax="231" yMax="744">
      <component glyphName="i" x="0" y="0" flags="0x1204"/>
      <component glyphName="circumflex" x="-101" y="0" flags="0x1004"/>
    </TTGlyph>
    <TTGlyph name="idieresis" xMin="-34" yMin="0" xMax="228" yMax="679">
      <contour>
        <pt x="61" y="500" on="1"/>
        <pt x="126" y="500" on="1"/>
        <pt x="126" y="0" on="1"/>
        <pt x="61" y="0" on="1"/>
      </contour>
      <contour>
        <pt x="158" y="591" on="1"/>
        <pt x="158" y="679" on="1"/>
        <pt x="228" y="679" on="1"/>
        <pt x="228" y="591" on="1"/>
      </contour>
      <contour>
        <pt x="-34" y="591" on="1"/>
        <pt x="-34" y="679" on="1"/>
        <pt x="36" y="679" on="1"/>
        <pt x="36" y="591" on="1"/>
      </contour>
    </TTGlyph>
    <TTGlyph name="igrave" xMin="-50" yMin="0" xMax="130" yMax="737">
      <contour>
        <pt x="61" y="500" on="1"/>
        <pt x="126" y="500" on="1"/>
        <pt x="126" y="0" on="1"/>
        <pt x="61" y="0" on="1"/>
      </contour>
      <contour>
        <pt x="63" y="580" on="1"/>
        <pt x="-50" y="737" on="1"/>
        <pt x="27" y="737" on="1"/>
        <pt x="130" y="580" on="1"/>
      </contour>
    </TTGlyph>
    <TTGlyph name="j" xMin="-19" yMin="-237" xMax="127" yMax="694">
      <contour>
        <pt x="60" y="501" on="1"/>
        <pt x="127" y="501" on="1"/>
        <pt x="127" y="-103" on="1"/>
        <pt x="127" y="-174" on="0"/>
        <pt x="57" y="-237" on="0"/>
        <pt x="5" y="-237" on="1"/>
        <pt x="-19" y="-237" on="1"/>
        <pt x="-19" y="-171" on="1"/>
        <pt x="1" y="-171" on="1"/>
        <pt x="25" y="-171" on="0"/>
        <pt x="61" y="-142" on="0"/>
        <pt x="63" y="-108" on="1"/>
      </contour>
      <contour>
        <pt x="60" y="694" on="1"/>
        <pt x="127" y="694" on="1"/>
        <pt x="127" y="608" on="1"/>
        <pt x="60" y="608" on="1"/>
      </contour>
    </TTGlyph>
    <TTGlyph name="k" xMin="61" yMin="0" xMax="319" yMax="695">
      <contour>
        <pt x="249" y="0" on="1"/>
        <pt x="145" y="232" on="1"/>
        <pt x="124" y="232" on="1"/>
        <pt x="124" y="0" on="1"/>
        <pt x="61" y="0" on="1"/>
        <pt x="61" y="695" on="1"/>
        <pt x="124" y="695" on="1"/>
        <pt x="124" y="305" on="1"/>
        <pt x="144" y="305" on="1"/>
        <pt x="248" y="499" on="1"/>
        <pt x="318" y="499" on="1"/>
        <pt x="195" y="268" on="1"/>
        <pt x="319" y="0" on="1"/>
      </contour>
    </TTGlyph>
    <TTGlyph name="l" xMin="67" yMin="1" xMax="212" yMax="695">
      <contour>
        <pt x="67" y="695" on="1"/>
        <pt x="131" y="695" on="1"/>
        <pt x="131" y="130" on="1"/>
        <pt x="131" y="94" on="0"/>
        <pt x="167" y="67" on="0"/>
        <pt x="192" y="67" on="1"/>
        <pt x="212" y="67" on="1"/>
        <pt x="212" y="1" on="1"/>
        <pt x="187" y="1" on="1"/>
        <pt x="136" y="1" on="0"/>
        <pt x="67" y="64" on="0"/>
        <pt x="67" y="135" on="1"/>
      </contour>
    </TTGlyph>
    <TTGlyph name="less" xMin="50" yMin="164" xMax="419" yMax="434">
      <contour>
        <pt x="419" y="232" on="1"/>
        <pt x="419" y="164" on="1"/>
        <pt x="50" y="254" on="1"/>
        <pt x="50" y="348" on="1"/>
        <pt x="419" y="434" on="1"/>
        <pt x="419" y="366" on="1"/>
        <pt x="252" y="330" on="1"/>
        <pt x="253" y="330" on="1"/>
        <pt x="238" y="326" on="0"/>
        <pt x="196" y="318" on="0"/>
        <pt x="176" y="313" on="1"/>
        <pt x="153" y="308" on="0"/>
        <pt x="129" y="303" on="1"/>
        <pt x="129" y="295" on="1"/>
        <pt x="134" y="294" on="0"/>
        <pt x="157" y="289" on="0"/>
        <pt x="173" y="285" on="1"/>
        <pt x="172" y="285" on="1"/>
        <pt x="193" y="280" on="0"/>
        <pt x="239" y="272" on="0"/>
        <pt x="254" y="268" on="1"/>
      </contour>
    </TTGlyph>
    <TTGlyph name="lslash" xMin="23" yMin="1" xMax="370" yMax="695">
      <contour>
        <pt x="188" y="203" on="1"/>
        <pt x="188" y="130" on="1"/>
        <pt x="188" y="94" on="0"/>
        <pt x="224" y="67" on="0"/>
        <pt x="250" y="67" on="1"/>
        <pt x="269" y="67" on="1"/>
        <pt x="269" y="1" on="1"/>
        <pt x="245" y="1" on="1"/>
        <pt x="194" y="1" on="0"/>
        <pt x="124" y="64" on="0"/>
        <pt x="124" y="135" on="1"/>
        <pt x="124" y="203" on="1"/>
        <pt x="23" y="203" on="1"/>
        <pt x="23" y="269" on="1"/>
        <pt x="124" y="269" on="1"/>
        <pt x="124" y="695" on="1"/>
        <pt x="188" y="695" on="1"/>
        <pt x="188" y="269" on="1"/>
        <pt x="370" y="269" on="1"/>
        <pt x="370" y="203" on="1"/>
      </contour>
    </TTGlyph>
    <TTGlyph name="m" xMin="37" yMin="0" xMax="623" yMax="512">
      <contour>
        <pt x="310" y="373" on="1"/>
        <pt x="310" y="388" on="0"/>
        <pt x="294" y="415" on="0"/>
        <pt x="269" y="435" on="0"/>
        <pt x="236" y="446" on="0"/>
        <pt x="219" y="446" on="1"/>
        <pt x="211" y="446" on="0"/>
        <pt x="186" y="441" on="0"/>
        <pt x="159" y="432" on="0"/>
        <pt x="134" y="421" on="0"/>
        <pt x="125" y="415" on="1"/>
        <pt x="125" y="0" on="1"/>
        <pt x="62" y="0" on="1"/>
        <pt x="62" y="444" on="1"/>
        <pt x="37" y="468" on="1"/>
        <pt x="82" y="512" on="1"/>
        <pt x="112" y="481" on="1"/>
        <pt x="138" y="495" on="0"/>
        <pt x="188" y="510" on="0"/>
        <pt x="213" y="510" on="1"/>
        <pt x="255" y="510" on="0"/>
        <pt x="328" y="476" on="0"/>
        <pt x="346" y="442" on="1"/>
        <pt x="375" y="482" on="0"/>
        <pt x="452" y="510" on="0"/>
        <pt x="487" y="510" on="1"/>
        <pt x="524" y="510" on="0"/>
        <pt x="576" y="479" on="0"/>
        <pt x="608" y="431" on="0"/>
        <pt x="623" y="376" on="0"/>
        <pt x="623" y="352" on="1"/>
        <pt x="623" y="0" on="1"/>
        <pt x="559" y="0" on="1"/>
        <pt x="559" y="352" on="1"/>
        <pt x="559" y="369" on="0"/>
        <pt x="552" y="402" on="0"/>
        <pt x="534" y="429" on="0"/>
        <pt x="505" y="446" on="0"/>
        <pt x="484" y="446" on="1"/>
        <pt x="427" y="446" on="0"/>
        <pt x="374" y="381" on="0"/>
        <pt x="374" y="321" on="1"/>
        <pt x="374" y="0" on="1"/>
        <pt x="310" y="0" on="1"/>
      </contour>
    </TTGlyph>
    <TTGlyph name="minus" xMin="66" yMin="244" xMax="413" yMax="320">
      <contour>
        <pt x="66" y="244" on="1"/>
        <pt x="66" y="320" on="1"/>
        <pt x="413" y="320" on="1"/>
        <pt x="413" y="244" on="1"/>
      </contour>
    </TTGlyph>
    <TTGlyph name="mu" xMin="69" yMin="-202" xMax="406" yMax="502">
      <contour>
        <pt x="70" y="-202" on="1"/>
        <pt x="70" y="135" on="1"/>
        <pt x="69" y="144" on="0"/>
        <pt x="69" y="168" on="0"/>
        <pt x="69" y="179" on="1"/>
        <pt x="70" y="502" on="1"/>
        <pt x="133" y="500" on="1"/>
        <pt x="133" y="149" on="1"/>
        <pt x="133" y="103" on="0"/>
        <pt x="183" y="54" on="0"/>
        <pt x="213" y="54" on="1"/>
        <pt x="242" y="54" on="0"/>
        <pt x="301" y="75" on="0"/>
        <pt x="318" y="86" on="1"/>
        <pt x="318" y="500" on="1"/>
        <pt x="381" y="500" on="1"/>
        <pt x="381" y="58" on="1"/>
        <pt x="406" y="35" on="1"/>
        <pt x="361" y="-10" on="1"/>
        <pt x="331" y="20" on="1"/>
        <pt x="303" y="6" on="0"/>
        <pt x="239" y="-8" on="0"/>
        <pt x="214" y="-8" on="1"/>
        <pt x="193" y="-8" on="0"/>
        <pt x="151" y="2" on="0"/>
        <pt x="132" y="16" on="1"/>
        <pt x="132" y="-202" on="1"/>
      </contour>
    </TTGlyph>
    <TTGlyph name="multiply" xMin="52" yMin="93" xMax="404" yMax="446">
      <contour>
        <pt x="361" y="93" on="1"/>
        <pt x="228" y="226" on="1"/>
        <pt x="96" y="93" on="1"/>
        <pt x="52" y="137" on="1"/>
        <pt x="185" y="269" on="1"/>
        <pt x="52" y="402" on="1"/>
        <pt x="96" y="446" on="1"/>
        <pt x="228" y="313" on="1"/>
        <pt x="361" y="446" on="1"/>
        <pt x="404" y="402" on="1"/>
        <pt x="272" y="269" on="1"/>
        <pt x="404" y="137" on="1"/>
      </contour>
    </TTGlyph>
    <TTGlyph name="n" xMin="38" yMin="0" xMax="374" yMax="511">
      <contour>
        <pt x="358" y="425" on="1"/>
        <pt x="370" y="399" on="0"/>
        <pt x="374" y="349" on="0"/>
        <pt x="374" y="322" on="1"/>
        <pt x="374" y="0" on="1"/>
        <pt x="309" y="0" on="1"/>
        <pt x="309" y="352" on="1"/>
        <pt x="309" y="398" on="0"/>
        <pt x="260" y="447" on="0"/>
        <pt x="230" y="447" on="1"/>
        <pt x="213" y="447" on="0"/>
        <pt x="160" y="438" on="0"/>
        <pt x="125" y="415" on="1"/>
        <pt x="125" y="0" on="1"/>
        <pt x="62" y="0" on="1"/>
        <pt x="62" y="443" on="1"/>
        <pt x="38" y="466" on="1"/>
        <pt x="82" y="511" on="1"/>
        <pt x="113" y="481" on="1"/>
        <pt x="165" y="509" on="0"/>
        <pt x="213" y="509" on="1"/>
        <pt x="258" y="509" on="0"/>
        <pt x="338" y="471" on="0"/>
      </contour>
    </TTGlyph>
    <TTGlyph name="nine" xMin="55" yMin="-11" xMax="360" yMax="652">
      <contour>
        <pt x="223" y="304" on="1"/>
        <pt x="253" y="304" on="0"/>
        <pt x="296" y="350" on="0"/>
        <pt x="296" y="382" on="1"/>
        <pt x="296" y="516" on="1"/>
        <pt x="296" y="551" on="0"/>
        <pt x="245" y="589" on="0"/>
        <pt x="213" y="589" on="1"/>
        <pt x="194" y="589" on="0"/>
        <pt x="160" y="582" on="0"/>
        <pt x="134" y="565" on="0"/>
        <pt x="119" y="537" on="0"/>
        <pt x="119" y="516" on="1"/>
        <pt x="119" y="382" on="1"/>
        <pt x="119" y="350" on="0"/>
        <pt x="161" y="304" on="0"/>
        <pt x="192" y="304" on="1"/>
      </contour>
      <contour>
        <pt x="224" y="652" on="1"/>
        <pt x="252" y="652" on="0"/>
        <pt x="302" y="630" on="0"/>
        <pt x="339" y="593" on="0"/>
        <pt x="360" y="542" on="0"/>
        <pt x="360" y="512" on="1"/>
        <pt x="360" y="144" on="1"/>
        <pt x="360" y="110" on="0"/>
        <pt x="335" y="53" on="0"/>
        <pt x="292" y="12" on="0"/>
        <pt x="235" y="-11" on="0"/>
        <pt x="202" y="-11" on="1"/>
        <pt x="196" y="-11" on="0"/>
        <pt x="149" y="-1" on="0"/>
        <pt x="123" y="5" on="1"/>
        <pt x="92" y="12" on="0"/>
        <pt x="55" y="22" on="1"/>
        <pt x="73" y="82" on="1"/>
        <pt x="135" y="66" on="1"/>
        <pt x="158" y="60" on="0"/>
        <pt x="199" y="51" on="0"/>
        <pt x="202" y="51" on="1"/>
        <pt x="241" y="51" on="0"/>
        <pt x="298" y="102" on="0"/>
        <pt x="298" y="144" on="1"/>
        <pt x="298" y="263" on="1"/>
        <pt x="286" y="256" on="0"/>
        <pt x="257" y="248" on="0"/>
        <pt x="227" y="243" on="0"/>
        <pt x="200" y="241" on="0"/>
        <pt x="192" y="241" on="1"/>
        <pt x="163" y="241" on="0"/>
        <pt x="114" y="264" on="0"/>
        <pt x="77" y="303" on="0"/>
        <pt x="56" y="355" on="0"/>
        <pt x="56" y="385" on="1"/>
        <pt x="56" y="512" on="1"/>
        <pt x="56" y="542" on="0"/>
        <pt x="77" y="593" on="0"/>
        <pt x="114" y="630" on="0"/>
        <pt x="163" y="652" on="0"/>
        <pt x="192" y="652" on="1"/>
      </contour>
    </TTGlyph>
    <TTGlyph name="ntilde" xMin="38" yMin="0" xMax="374" yMax="651">
      <component glyphName="n" x="0" y="0" flags="0x1204"/>
      <component glyphName="tilde" x="-34" y="0" flags="0x1004"/>
    </TTGlyph>
    <TTGlyph name="o" xMin="53" yMin="-6" xMax="364" yMax="510">
      <contour>
        <pt x="306" y="358" on="1"/>
        <pt x="306" y="388" on="0"/>
        <pt x="285" y="423" on="0"/>
        <pt x="254" y="442" on="0"/>
        <pt x="221" y="448" on="0"/>
        <pt x="209" y="448" on="1"/>
        <pt x="197" y="448" on="0"/>
        <pt x="163" y="442" on="0"/>
        <pt x="132" y="423" on="0"/>
        <pt x="110" y="388" on="0"/>
        <pt x="110" y="358" on="1"/>
        <pt x="110" y="147" on="1"/>
        <pt x="110" y="117" on="0"/>
        <pt x="132" y="81" on="0"/>
        <pt x="163" y="62" on="0"/>
        <pt x="197" y="55" on="0"/>
        <pt x="209" y="55" on="1"/>
        <pt x="221" y="55" on="0"/>
        <pt x="254" y="62" on="0"/>
        <pt x="285" y="81" on="0"/>
        <pt x="306" y="117" on="0"/>
        <pt x="306" y="147" on="1"/>
      </contour>
      <contour>
        <pt x="364" y="140" on="1"/>
        <pt x="364" y="93" on="0"/>
        <pt x="330" y="36" on="0"/>
        <pt x="281" y="4" on="0"/>
        <pt x="228" y="-6" on="0"/>
        <pt x="209" y="-6" on="1"/>
        <pt x="190" y="-6" on="0"/>
        <pt x="136" y="4" on="0"/>
        <pt x="87" y="36" on="0"/>
        <pt x="53" y="93" on="0"/>
        <pt x="53" y="140" on="1"/>
        <pt x="53" y="365" on="1"/>
        <pt x="53" y="412" on="0"/>
        <pt x="87" y="469" on="0"/>
        <pt x="136" y="500" on="0"/>
        <pt x="190" y="510" on="0"/>
        <pt x="209" y="510" on="1"/>
        <pt x="228" y="510" on="0"/>
        <pt x="281" y="500" on="0"/>
        <pt x="330" y="469" on="0"/>
        <pt x="364" y="412" on="0"/>
        <pt x="364" y="365" on="1"/>
      </contour>
    </TTGlyph>
    <TTGlyph name="oacute" xMin="53" yMin="-6" xMax="364" yMax="731">
      <component glyphName="o" x="0" y="0" flags="0x1204"/>
      <component glyphName="acute" x="-25" y="0" flags="0x1004"/>
    </TTGlyph>
    <TTGlyph name="ocircumflex" xMin="53" yMin="-6" xMax="364" yMax="744">
      <component glyphName="o" x="0" y="0" flags="0x1204"/>
      <component glyphName="circumflex" x="13" y="0" flags="0x1004"/>
    </TTGlyph>
    <TTGlyph name="odieresis" xMin="53" yMin="-6" xMax="364" yMax="672">
      <component glyphName="o" x="0" y="0" flags="0x1204"/>
      <component glyphName="dieresis" x="-21" y="0" flags="0x1004"/>
    </TTGlyph>
    <TTGlyph name="oe" xMin="53" yMin="-9" xMax="619" yMax="510">
      <contour>
        <pt x="306" y="356" on="1"/>
        <pt x="306" y="386" on="0"/>
        <pt x="285" y="421" on="0"/>
        <pt x="254" y="440" on="0"/>
        <pt x="221" y="446" on="0"/>
        <pt x="209" y="446" on="1"/>
        <pt x="197" y="446" on="0"/>
        <pt x="163" y="440" on="0"/>
        <pt x="133" y="421" on="0"/>
        <pt x="111" y="386" on="0"/>
        <pt x="111" y="356" on="1"/>
        <pt x="111" y="145" on="1"/>
        <pt x="111" y="115" on="0"/>
        <pt x="133" y="80" on="0"/>
        <pt x="163" y="60" on="0"/>
        <pt x="197" y="54" on="0"/>
        <pt x="209" y="54" on="1"/>
        <pt x="221" y="54" on="0"/>
        <pt x="254" y="60" on="0"/>
        <pt x="285" y="80" on="0"/>
        <pt x="306" y="115" on="0"/>
        <pt x="306" y="145" on="1"/>
      </contour>
      <contour>
        <pt x="365" y="138" on="1"/>
        <pt x="365" y="91" on="0"/>
        <pt x="331" y="34" on="0"/>
        <pt x="282" y="2" on="0"/>
        <pt x="228" y="-8" on="0"/>
        <pt x="209" y="-8" on="1"/>
        <pt x="190" y="-8" on="0"/>
        <pt x="137" y="2" on="0"/>
        <pt x="88" y="34" on="0"/>
        <pt x="53" y="91" on="0"/>
        <pt x="53" y="138" on="1"/>
        <pt x="53" y="363" on="1"/>
        <pt x="53" y="410" on="0"/>
        <pt x="88" y="467" on="0"/>
        <pt x="137" y="498" on="0"/>
        <pt x="190" y="508" on="0"/>
        <pt x="209" y="508" on="1"/>
        <pt x="228" y="508" on="0"/>
        <pt x="282" y="498" on="0"/>
        <pt x="331" y="467" on="0"/>
        <pt x="365" y="410" on="0"/>
        <pt x="365" y="363" on="1"/>
      </contour>
      <contour>
        <pt x="480" y="248" on="1"/>
        <pt x="512" y="248" on="0"/>
        <pt x="554" y="297" on="0"/>
        <pt x="554" y="329" on="1"/>
        <pt x="554" y="370" on="1"/>
        <pt x="554" y="391" on="0"/>
        <pt x="538" y="420" on="0"/>
        <pt x="511" y="438" on="0"/>
        <pt x="476" y="446" on="0"/>
        <pt x="457" y="446" on="1"/>
        <pt x="422" y="446" on="0"/>
        <pt x="371" y="405" on="0"/>
        <pt x="371" y="370" on="1"/>
        <pt x="371" y="249" on="1"/>
      </contour>
      <contour>
        <pt x="306" y="365" on="1"/>
        <pt x="306" y="395" on="0"/>
        <pt x="328" y="448" on="0"/>
        <pt x="365" y="487" on="0"/>
        <pt x="416" y="510" on="0"/>
        <pt x="445" y="510" on="1"/>
        <pt x="479" y="510" on="1"/>
        <pt x="508" y="510" on="0"/>
        <pt x="559" y="488" on="0"/>
        <pt x="597" y="449" on="0"/>
        <pt x="619" y="396" on="0"/>
        <pt x="619" y="365" on="1"/>
        <pt x="619" y="333" on="1"/>
        <pt x="619" y="290" on="0"/>
        <pt x="589" y="232" on="0"/>
        <pt x="536" y="196" on="0"/>
        <pt x="466" y="180" on="0"/>
        <pt x="427" y="180" on="1"/>
        <pt x="399" y="180" on="0"/>
        <pt x="371" y="183" on="1"/>
        <pt x="371" y="133" on="1"/>
        <pt x="378" y="98" on="0"/>
        <pt x="433" y="54" on="0"/>
        <pt x="468" y="54" on="1"/>
        <pt x="476" y="54" on="0"/>
        <pt x="521" y="63" on="0"/>
        <pt x="544" y="68" on="1"/>
        <pt x="571" y="74" on="0"/>
        <pt x="602" y="83" on="1"/>
        <pt x="618" y="18" on="1"/>
        <pt x="584" y="10" on="0"/>
        <pt x="555" y="4" on="1"/>
        <pt x="530" y="-1" on="0"/>
        <pt x="480" y="-9" on="0"/>
        <pt x="468" y="-9" on="1"/>
        <pt x="435" y="-9" on="0"/>
        <pt x="376" y="15" on="0"/>
        <pt x="332" y="57" on="0"/>
        <pt x="306" y="115" on="0"/>
        <pt x="306" y="150" on="1"/>
      </contour>
    </TTGlyph>
    <TTGlyph name="ograve" xMin="53" yMin="-6" xMax="364" yMax="730">
      <component glyphName="o" x="0" y="0" flags="0x1204"/>
      <component glyphName="grave" x="-20" y="0" flags="0x1004"/>
    </TTGlyph>
    <TTGlyph name="one" xMin="75" yMin="1" xMax="141" yMax="650">
      <contour>
        <pt x="75" y="617" on="1"/>
        <pt x="141" y="650" on="1"/>
        <pt x="141" y="1" on="1"/>
        <pt x="75" y="1" on="1"/>
      </contour>
    </TTGlyph>
    <TTGlyph name="oslash" xMin="53" yMin="-88" xMax="364" yMax="605">
      <component glyphName="o" x="0" y="0" flags="0x1204"/>
      <component glyphName="slash" x="76" y="-89" flags="0x1004"/>
    </TTGlyph>
    <TTGlyph name="otilde" xMin="53" yMin="-6" xMax="364" yMax="651">
      <component glyphName="o" x="0" y="0" flags="0x1204"/>
      <component glyphName="tilde" x="-36" y="0" flags="0x1004"/>
    </TTGlyph>
    <TTGlyph name="p" xMin="39" yMin="-243" xMax="366" yMax="513">
      <contour>
        <pt x="126" y="85" on="1"/>
        <pt x="137" y="78" on="0"/>
        <pt x="167" y="67" on="0"/>
        <pt x="197" y="59" on="0"/>
        <pt x="222" y="54" on="0"/>
        <pt x="230" y="54" on="1"/>
        <pt x="261" y="54" on="0"/>
        <pt x="304" y="99" on="0"/>
        <pt x="304" y="131" on="1"/>
        <pt x="304" y="370" on="1"/>
        <pt x="304" y="401" on="0"/>
        <pt x="261" y="446" on="0"/>
        <pt x="231" y="446" on="1"/>
        <pt x="214" y="446" on="0"/>
        <pt x="153" y="433" on="0"/>
        <pt x="126" y="414" on="1"/>
      </contour>
      <contour>
        <pt x="125" y="-243" on="1"/>
        <pt x="63" y="-243" on="1"/>
        <pt x="63" y="445" on="1"/>
        <pt x="39" y="468" on="1"/>
        <pt x="82" y="513" on="1"/>
        <pt x="114" y="482" on="1"/>
        <pt x="146" y="497" on="0"/>
        <pt x="209" y="510" on="0"/>
        <pt x="230" y="510" on="1"/>
        <pt x="258" y="510" on="0"/>
        <pt x="308" y="487" on="0"/>
        <pt x="345" y="448" on="0"/>
        <pt x="366" y="396" on="0"/>
        <pt x="366" y="366" on="1"/>
        <pt x="366" y="134" on="1"/>
        <pt x="366" y="104" on="0"/>
        <pt x="345" y="52" on="0"/>
        <pt x="308" y="13" on="0"/>
        <pt x="258" y="-10" on="0"/>
        <pt x="230" y="-10" on="1"/>
        <pt x="216" y="-10" on="0"/>
        <pt x="160" y="-3" on="0"/>
        <pt x="125" y="14" on="1"/>
      </contour>
    </TTGlyph>
    <TTGlyph name="parenleft" xMin="58" yMin="-48" xMax="204" yMax="743">
      <contour>
        <pt x="58" y="609" on="1"/>
        <pt x="58" y="680" on="0"/>
        <pt x="128" y="743" on="0"/>
        <pt x="180" y="743" on="1"/>
        <pt x="204" y="743" on="1"/>
        <pt x="204" y="677" on="1"/>
        <pt x="184" y="677" on="1"/>
        <pt x="159" y="677" on="0"/>
        <pt x="123" y="650" on="0"/>
        <pt x="123" y="614" on="1"/>
        <pt x="123" y="82" on="1"/>
        <pt x="123" y="45" on="0"/>
        <pt x="159" y="18" on="0"/>
        <pt x="184" y="18" on="1"/>
        <pt x="204" y="18" on="1"/>
        <pt x="204" y="-48" on="1"/>
        <pt x="180" y="-48" on="1"/>
        <pt x="128" y="-48" on="0"/>
        <pt x="58" y="15" on="0"/>
        <pt x="58" y="87" on="1"/>
      </contour>
    </TTGlyph>
    <TTGlyph name="parenright" xMin="32" yMin="-49" xMax="179" yMax="743">
      <contour>
        <pt x="178" y="86" on="1"/>
        <pt x="178" y="14" on="0"/>
        <pt x="107" y="-49" on="0"/>
        <pt x="56" y="-49" on="1"/>
        <pt x="32" y="-49" on="1"/>
        <pt x="32" y="18" on="1"/>
        <pt x="51" y="18" on="1"/>
        <pt x="76" y="18" on="0"/>
        <pt x="113" y="44" on="0"/>
        <pt x="113" y="81" on="1"/>
        <pt x="114" y="614" on="1"/>
        <pt x="114" y="650" on="0"/>
        <pt x="77" y="677" on="0"/>
        <pt x="52" y="677" on="1"/>
        <pt x="33" y="677" on="1"/>
        <pt x="33" y="743" on="1"/>
        <pt x="57" y="743" on="1"/>
        <pt x="108" y="743" on="0"/>
        <pt x="179" y="680" on="0"/>
        <pt x="179" y="609" on="1"/>
        <pt x="178" y="86" on="1"/>
      </contour>
    </TTGlyph>
    <TTGlyph name="period" xMin="54" yMin="5" xMax="135" yMax="104">
      <contour>
        <pt x="54" y="5" on="1"/>
        <pt x="54" y="104" on="1"/>
        <pt x="135" y="104" on="1"/>
        <pt x="135" y="5" on="1"/>
      </contour>
    </TTGlyph>
    <TTGlyph name="plus" xMin="43" yMin="95" xMax="387" yMax="439">
      <contour>
        <pt x="387" y="229" on="1"/>
        <pt x="253" y="229" on="1"/>
        <pt x="253" y="95" on="1"/>
        <pt x="177" y="95" on="1"/>
        <pt x="177" y="229" on="1"/>
        <pt x="43" y="229" on="1"/>
        <pt x="43" y="305" on="1"/>
        <pt x="177" y="305" on="1"/>
        <pt x="177" y="439" on="1"/>
        <pt x="253" y="439" on="1"/>
        <pt x="253" y="305" on="1"/>
        <pt x="387" y="305" on="1"/>
      </contour>
    </TTGlyph>
    <TTGlyph name="q" xMin="52" yMin="-243" xMax="379" yMax="512">
      <contour>
        <pt x="292" y="413" on="1"/>
        <pt x="257" y="436" on="0"/>
        <pt x="204" y="446" on="0"/>
        <pt x="187" y="446" on="1"/>
        <pt x="157" y="446" on="0"/>
        <pt x="114" y="401" on="0"/>
        <pt x="114" y="369" on="1"/>
        <pt x="114" y="131" on="1"/>
        <pt x="114" y="99" on="0"/>
        <pt x="157" y="54" on="0"/>
        <pt x="188" y="54" on="1"/>
        <pt x="195" y="54" on="0"/>
        <pt x="221" y="57" on="0"/>
        <pt x="251" y="64" on="0"/>
        <pt x="280" y="75" on="0"/>
        <pt x="292" y="84" on="1"/>
      </contour>
      <contour>
        <pt x="284" y="8" on="1"/>
        <pt x="258" y="-4" on="0"/>
        <pt x="216" y="-9" on="0"/>
        <pt x="200" y="-10" on="1"/>
        <pt x="191" y="-10" on="1"/>
        <pt x="162" y="-10" on="0"/>
        <pt x="112" y="13" on="0"/>
        <pt x="74" y="52" on="0"/>
        <pt x="52" y="104" on="0"/>
        <pt x="52" y="134" on="1"/>
        <pt x="52" y="365" on="1"/>
        <pt x="52" y="395" on="0"/>
        <pt x="73" y="447" on="0"/>
        <pt x="110" y="486" on="0"/>
        <pt x="159" y="509" on="0"/>
        <pt x="188" y="509" on="1"/>
        <pt x="208" y="509" on="0"/>
        <pt x="272" y="496" on="0"/>
        <pt x="304" y="482" on="1"/>
        <pt x="336" y="512" on="1"/>
        <pt x="379" y="467" on="1"/>
        <pt x="355" y="444" on="1"/>
        <pt x="355" y="-243" on="1"/>
        <pt x="293" y="-243" on="1"/>
        <pt x="293" y="12" on="1"/>
      </contour>
    </TTGlyph>
    <TTGlyph name="question" xMin="33" yMin="14" xMax="390" yMax="704">
      <contour>
        <pt x="192" y="14" on="1"/>
        <pt x="192" y="88" on="1"/>
        <pt x="138" y="88" on="1"/>
        <pt x="138" y="14" on="1"/>
      </contour>
      <contour>
        <pt x="390" y="531" on="1"/>
        <pt x="390" y="498" on="0"/>
        <pt x="371" y="452" on="0"/>
        <pt x="360" y="435" on="1"/>
        <pt x="221" y="226" on="1"/>
        <pt x="212" y="212" on="0"/>
        <pt x="199" y="183" on="0"/>
        <pt x="199" y="163" on="1"/>
        <pt x="199" y="136" on="1"/>
        <pt x="129" y="136" on="1"/>
        <pt x="129" y="162" on="1"/>
        <pt x="129" y="197" on="0"/>
        <pt x="147" y="245" on="0"/>
        <pt x="158" y="262" on="1"/>
        <pt x="190" y="311" on="0"/>
        <pt x="258" y="411" on="0"/>
        <pt x="290" y="460" on="1"/>
        <pt x="301" y="476" on="0"/>
        <pt x="321" y="514" on="0"/>
        <pt x="321" y="530" on="1"/>
        <pt x="321" y="554" on="0"/>
        <pt x="297" y="592" on="0"/>
        <pt x="261" y="619" on="0"/>
        <pt x="220" y="633" on="0"/>
        <pt x="204" y="633" on="1"/>
        <pt x="193" y="633" on="0"/>
        <pt x="169" y="627" on="0"/>
        <pt x="158" y="623" on="1"/>
        <pt x="56" y="585" on="1"/>
        <pt x="33" y="651" on="1"/>
        <pt x="121" y="687" on="1"/>
        <pt x="138" y="694" on="0"/>
        <pt x="186" y="704" on="0"/>
        <pt x="203" y="704" on="1"/>
        <pt x="240" y="704" on="0"/>
        <pt x="307" y="679" on="0"/>
        <pt x="359" y="633" on="0"/>
        <pt x="390" y="570" on="0"/>
      </contour>
    </TTGlyph>
    <TTGlyph name="questiondown" xMin="34" yMin="-227" xMax="360" yMax="464">
      <contour>
        <pt x="286" y="464" on="1"/>
        <pt x="286" y="363" on="1"/>
        <pt x="205" y="363" on="1"/>
        <pt x="205" y="464" on="1"/>
      </contour>
      <contour>
        <pt x="34" y="-67" on="1"/>
        <pt x="34" y="-38" on="0"/>
        <pt x="51" y="5" on="0"/>
        <pt x="62" y="21" on="1"/>
        <pt x="201" y="231" on="1"/>
        <pt x="211" y="245" on="0"/>
        <pt x="226" y="278" on="0"/>
        <pt x="226" y="301" on="1"/>
        <pt x="226" y="314" on="1"/>
        <pt x="268" y="314" on="1"/>
        <pt x="268" y="302" on="1"/>
        <pt x="268" y="269" on="0"/>
        <pt x="252" y="227" on="0"/>
        <pt x="241" y="210" on="1"/>
        <pt x="209" y="161" on="0"/>
        <pt x="141" y="61" on="0"/>
        <pt x="109" y="12" on="1"/>
        <pt x="97" y="-5" on="0"/>
        <pt x="76" y="-47" on="0"/>
        <pt x="76" y="-66" on="1"/>
        <pt x="76" y="-93" on="0"/>
        <pt x="103" y="-136" on="0"/>
        <pt x="143" y="-167" on="0"/>
        <pt x="188" y="-183" on="0"/>
        <pt x="207" y="-183" on="1"/>
        <pt x="221" y="-183" on="0"/>
        <pt x="245" y="-177" on="0"/>
        <pt x="257" y="-172" on="1"/>
        <pt x="345" y="-138" on="1"/>
        <pt x="360" y="-177" on="1"/>
        <pt x="284" y="-209" on="1"/>
        <pt x="267" y="-216" on="0"/>
        <pt x="222" y="-227" on="0"/>
        <pt x="208" y="-227" on="1"/>
        <pt x="174" y="-227" on="0"/>
        <pt x="111" y="-204" on="0"/>
        <pt x="63" y="-162" on="0"/>
        <pt x="34" y="-103" on="0"/>
      </contour>
    </TTGlyph>
    <TTGlyph name="quotedbl" xMin="34" yMin="492" xMax="274" yMax="695">
      <contour>
        <pt x="274" y="637" on="1"/>
        <pt x="274" y="580" on="0"/>
        <pt x="223" y="510" on="0"/>
        <pt x="180" y="492" on="1"/>
        <pt x="161" y="562" on="1"/>
        <pt x="178" y="570" on="0"/>
        <pt x="204" y="604" on="0"/>
        <pt x="204" y="638" on="1"/>
        <pt x="204" y="695" on="1"/>
        <pt x="274" y="695" on="1"/>
      </contour>
      <contour>
        <pt x="146" y="637" on="1"/>
        <pt x="146" y="580" on="0"/>
        <pt x="95" y="510" on="0"/>
        <pt x="53" y="492" on="1"/>
        <pt x="34" y="562" on="1"/>
        <pt x="51" y="570" on="0"/>
        <pt x="76" y="604" on="0"/>
        <pt x="76" y="638" on="1"/>
        <pt x="76" y="695" on="1"/>
        <pt x="146" y="695" on="1"/>
      </contour>
    </TTGlyph>
    <TTGlyph name="quotedblleft" xMin="46" yMin="496" xMax="286" yMax="698">
      <contour>
        <pt x="46" y="554" on="1"/>
        <pt x="46" y="610" on="0"/>
        <pt x="97" y="681" on="0"/>
        <pt x="139" y="698" on="1"/>
        <pt x="159" y="628" on="1"/>
        <pt x="142" y="620" on="0"/>
        <pt x="116" y="586" on="0"/>
        <pt x="116" y="553" on="1"/>
        <pt x="116" y="496" on="1"/>
        <pt x="46" y="496" on="1"/>
      </contour>
      <contour>
        <pt x="173" y="554" on="1"/>
        <pt x="173" y="610" on="0"/>
        <pt x="224" y="681" on="0"/>
        <pt x="267" y="698" on="1"/>
        <pt x="286" y="628" on="1"/>
        <pt x="269" y="620" on="0"/>
        <pt x="244" y="586" on="0"/>
        <pt x="244" y="553" on="1"/>
        <pt x="244" y="496" on="1"/>
        <pt x="173" y="496" on="1"/>
      </contour>
    </TTGlyph>
    <TTGlyph name="quotedblright" xMin="34" yMin="492" xMax="275" yMax="695">
      <contour>
        <pt x="275" y="637" on="1"/>
        <pt x="275" y="580" on="0"/>
        <pt x="224" y="510" on="0"/>
        <pt x="181" y="492" on="1"/>
        <pt x="162" y="562" on="1"/>
        <pt x="179" y="570" on="0"/>
        <pt x="205" y="604" on="0"/>
        <pt x="205" y="638" on="1"/>
        <pt x="205" y="695" on="1"/>
        <pt x="275" y="695" on="1"/>
      </contour>
      <contour>
        <pt x="147" y="637" on="1"/>
        <pt x="147" y="580" on="0"/>
        <pt x="96" y="510" on="0"/>
        <pt x="54" y="492" on="1"/>
        <pt x="34" y="562" on="1"/>
        <pt x="51" y="570" on="0"/>
        <pt x="77" y="604" on="0"/>
        <pt x="77" y="638" on="1"/>
        <pt x="77" y="695" on="1"/>
        <pt x="147" y="695" on="1"/>
      </contour>
    </TTGlyph>
    <TTGlyph name="quotesinglbase" xMin="38" yMin="299" xMax="151" yMax="501">
      <contour>
        <pt x="151" y="444" on="1"/>
        <pt x="151" y="387" on="0"/>
        <pt x="100" y="316" on="0"/>
        <pt x="57" y="299" on="1"/>
        <pt x="38" y="369" on="1"/>
        <pt x="55" y="377" on="0"/>
        <pt x="80" y="411" on="0"/>
        <pt x="80" y="445" on="1"/>
        <pt x="80" y="501" on="1"/>
        <pt x="151" y="501" on="1"/>
        <pt x="151" y="444" on="1"/>
      </contour>
    </TTGlyph>
    <TTGlyph name="quotesingle" xMin="34" yMin="492" xMax="147" yMax="695">
      <contour>
        <pt x="147" y="637" on="1"/>
        <pt x="147" y="580" on="0"/>
        <pt x="96" y="510" on="0"/>
        <pt x="53" y="492" on="1"/>
        <pt x="34" y="562" on="1"/>
        <pt x="51" y="570" on="0"/>
        <pt x="76" y="604" on="0"/>
        <pt x="76" y="638" on="1"/>
        <pt x="76" y="695" on="1"/>
        <pt x="147" y="695" on="1"/>
        <pt x="147" y="637" on="1"/>
      </contour>
    </TTGlyph>
    <TTGlyph name="r" xMin="35" yMin="1" xMax="329" yMax="510">
      <contour>
        <pt x="294" y="413" on="1"/>
        <pt x="276" y="424" on="0"/>
        <pt x="253" y="437" on="0"/>
        <pt x="235" y="443" on="0"/>
        <pt x="219" y="444" on="0"/>
        <pt x="210" y="444" on="1"/>
        <pt x="196" y="444" on="0"/>
        <pt x="150" y="429" on="0"/>
        <pt x="126" y="408" on="1"/>
        <pt x="126" y="1" on="1"/>
        <pt x="64" y="1" on="1"/>
        <pt x="64" y="435" on="1"/>
        <pt x="58" y="441" on="0"/>
        <pt x="40" y="457" on="0"/>
        <pt x="35" y="463" on="1"/>
        <pt x="79" y="508" on="1"/>
        <pt x="113" y="475" on="1"/>
        <pt x="142" y="498" on="0"/>
        <pt x="193" y="510" on="0"/>
        <pt x="212" y="510" on="1"/>
        <pt x="232" y="510" on="0"/>
        <pt x="282" y="492" on="0"/>
        <pt x="329" y="466" on="1"/>
      </contour>
    </TTGlyph>
    <TTGlyph name="registered" xMin="40" yMin="-6" xMax="751" yMax="706">
      <contour>
        <pt x="751" y="350" on="1"/>
        <pt x="751" y="276" on="0"/>
        <pt x="695" y="147" on="0"/>
        <pt x="599" y="50" on="0"/>
        <pt x="469" y="-6" on="0"/>
        <pt x="396" y="-6" on="1"/>
        <pt x="322" y="-6" on="0"/>
        <pt x="192" y="50" on="0"/>
        <pt x="96" y="147" on="0"/>
        <pt x="40" y="276" on="0"/>
        <pt x="40" y="350" on="1"/>
        <pt x="40" y="424" on="0"/>
        <pt x="96" y="554" on="0"/>
        <pt x="192" y="650" on="0"/>
        <pt x="322" y="706" on="0"/>
        <pt x="396" y="706" on="1"/>
        <pt x="469" y="706" on="0"/>
        <pt x="599" y="650" on="0"/>
        <pt x="695" y="554" on="0"/>
        <pt x="751" y="424" on="0"/>
      </contour>
      <contour>
        <pt x="689" y="350" on="1"/>
        <pt x="689" y="411" on="0"/>
        <pt x="643" y="519" on="0"/>
        <pt x="563" y="598" on="0"/>
        <pt x="456" y="644" on="0"/>
        <pt x="396" y="644" on="1"/>
        <pt x="335" y="644" on="0"/>
        <pt x="228" y="598" on="0"/>
        <pt x="148" y="519" on="0"/>
        <pt x="102" y="411" on="0"/>
        <pt x="102" y="350" on="1"/>
        <pt x="102" y="289" on="0"/>
        <pt x="148" y="182" on="0"/>
        <pt x="228" y="102" on="0"/>
        <pt x="335" y="56" on="0"/>
        <pt x="396" y="56" on="1"/>
        <pt x="456" y="56" on="0"/>
        <pt x="563" y="102" on="0"/>
        <pt x="643" y="182" on="0"/>
        <pt x="689" y="289" on="0"/>
      </contour>
      <contour>
        <pt x="390" y="532" on="1"/>
        <pt x="379" y="532" on="0"/>
        <pt x="354" y="527" on="0"/>
        <pt x="343" y="524" on="1"/>
        <pt x="331" y="520" on="0"/>
        <pt x="318" y="516" on="1"/>
        <pt x="318" y="342" on="1"/>
        <pt x="390" y="342" on="1"/>
        <pt x="434" y="342" on="0"/>
        <pt x="488" y="395" on="0"/>
        <pt x="488" y="444" on="1"/>
        <pt x="488" y="493" on="0"/>
        <pt x="434" y="532" on="0"/>
      </contour>
      <contour>
        <pt x="443" y="323" on="1"/>
        <pt x="511" y="157" on="1"/>
        <pt x="491" y="157" on="1"/>
        <pt x="420" y="326" on="1"/>
        <pt x="409" y="323" on="0"/>
        <pt x="399" y="322" on="0"/>
        <pt x="394" y="322" on="1"/>
        <pt x="318" y="322" on="1"/>
        <pt x="318" y="157" on="1"/>
        <pt x="301" y="157" on="1"/>
        <pt x="301" y="533" on="1"/>
        <pt x="316" y="539" on="0"/>
        <pt x="332" y="543" on="1"/>
        <pt x="346" y="547" on="0"/>
        <pt x="378" y="553" on="0"/>
        <pt x="395" y="553" on="1"/>
        <pt x="417" y="553" on="0"/>
        <pt x="458" y="539" on="0"/>
        <pt x="490" y="511" on="0"/>
        <pt x="509" y="470" on="0"/>
        <pt x="509" y="444" on="1"/>
        <pt x="509" y="407" on="0"/>
        <pt x="474" y="343" on="0"/>
        <pt x="446" y="332" on="1"/>
      </contour>
    </TTGlyph>
    <TTGlyph name="s" xMin="41" yMin="-10" xMax="338" yMax="510">
      <contour>
        <pt x="338" y="141" on="1"/>
        <pt x="338" y="66" on="0"/>
        <pt x="263" y="-10" on="0"/>
        <pt x="203" y="-10" on="1"/>
        <pt x="185" y="-10" on="0"/>
        <pt x="147" y="-3" on="0"/>
        <pt x="127" y="5" on="1"/>
        <pt x="41" y="39" on="1"/>
        <pt x="65" y="94" on="1"/>
        <pt x="152" y="59" on="1"/>
        <pt x="165" y="54" on="0"/>
        <pt x="192" y="50" on="0"/>
        <pt x="204" y="50" on="1"/>
        <pt x="235" y="50" on="0"/>
        <pt x="278" y="99" on="0"/>
        <pt x="278" y="145" on="1"/>
        <pt x="278" y="164" on="0"/>
        <pt x="263" y="191" on="0"/>
        <pt x="240" y="207" on="0"/>
        <pt x="213" y="215" on="0"/>
        <pt x="201" y="215" on="1"/>
        <pt x="165" y="215" on="0"/>
        <pt x="106" y="229" on="0"/>
        <pt x="64" y="262" on="0"/>
        <pt x="42" y="317" on="0"/>
        <pt x="42" y="359" on="1"/>
        <pt x="42" y="396" on="0"/>
        <pt x="64" y="453" on="0"/>
        <pt x="101" y="491" on="0"/>
        <pt x="152" y="510" on="0"/>
        <pt x="182" y="510" on="1"/>
        <pt x="200" y="510" on="0"/>
        <pt x="236" y="501" on="0"/>
        <pt x="256" y="494" on="1"/>
        <pt x="295" y="480" on="1"/>
        <pt x="270" y="425" on="1"/>
        <pt x="244" y="434" on="0"/>
        <pt x="215" y="444" on="0"/>
        <pt x="198" y="448" on="0"/>
        <pt x="190" y="449" on="0"/>
        <pt x="186" y="449" on="1"/>
        <pt x="181" y="449" on="1"/>
        <pt x="150" y="449" on="0"/>
        <pt x="102" y="399" on="0"/>
        <pt x="102" y="354" on="1"/>
        <pt x="102" y="335" on="0"/>
        <pt x="119" y="306" on="0"/>
        <pt x="143" y="286" on="0"/>
        <pt x="172" y="276" on="0"/>
        <pt x="184" y="276" on="1"/>
        <pt x="216" y="276" on="0"/>
        <pt x="272" y="265" on="0"/>
        <pt x="314" y="235" on="0"/>
        <pt x="338" y="183" on="0"/>
      </contour>
    </TTGlyph>
    <TTGlyph name="scaron" xMin="41" yMin="-10" xMax="338" yMax="743">
      <component glyphName="s" x="0" y="0" flags="0x1204"/>
      <component glyphName="caron" x="-12" y="0" flags="0x1004"/>
    </TTGlyph>
    <TTGlyph name="semicolon" xMin="26" yMin="-93" xMax="154" yMax="413">
      <contour>
        <pt x="154" y="52" on="1"/>
        <pt x="154" y="-5" on="0"/>
        <pt x="105" y="-76" on="0"/>
        <pt x="63" y="-93" on="1"/>
        <pt x="26" y="-25" on="1"/>
        <pt x="43" y="-17" on="0"/>
        <pt x="74" y="20" on="0"/>
        <pt x="74" y="53" on="1"/>
        <pt x="74" y="109" on="1"/>
        <pt x="154" y="109" on="1"/>
      </contour>
      <contour>
        <pt x="74" y="312" on="1"/>
        <pt x="74" y="413" on="1"/>
        <pt x="154" y="413" on="1"/>
        <pt x="154" y="312" on="1"/>
      </contour>
    </TTGlyph>
    <TTGlyph name="seven" xMin="33" yMin="0" xMax="331" yMax="646">
      <contour>
        <pt x="33" y="646" on="1"/>
        <pt x="331" y="646" on="1"/>
        <pt x="331" y="574" on="1"/>
        <pt x="149" y="0" on="1"/>
        <pt x="79" y="0" on="1"/>
        <pt x="261" y="583" on="1"/>
        <pt x="33" y="583" on="1"/>
      </contour>
    </TTGlyph>
    <TTGlyph name="six" xMin="66" yMin="-7" xMax="370" yMax="652">
      <contour>
        <pt x="202" y="352" on="1"/>
        <pt x="172" y="352" on="0"/>
        <pt x="129" y="306" on="0"/>
        <pt x="129" y="274" on="1"/>
        <pt x="129" y="129" on="1"/>
        <pt x="129" y="91" on="0"/>
        <pt x="183" y="54" on="0"/>
        <pt x="219" y="54" on="1"/>
        <pt x="254" y="54" on="0"/>
        <pt x="306" y="89" on="0"/>
        <pt x="306" y="129" on="1"/>
        <pt x="306" y="274" on="1"/>
        <pt x="306" y="306" on="0"/>
        <pt x="263" y="352" on="0"/>
        <pt x="233" y="352" on="1"/>
      </contour>
      <contour>
        <pt x="201" y="-7" on="1"/>
        <pt x="173" y="-7" on="0"/>
        <pt x="124" y="15" on="0"/>
        <pt x="87" y="52" on="0"/>
        <pt x="66" y="103" on="0"/>
        <pt x="66" y="133" on="1"/>
        <pt x="66" y="497" on="1"/>
        <pt x="66" y="531" on="0"/>
        <pt x="91" y="588" on="0"/>
        <pt x="133" y="629" on="0"/>
        <pt x="191" y="652" on="0"/>
        <pt x="224" y="652" on="1"/>
        <pt x="229" y="652" on="0"/>
        <pt x="262" y="645" on="0"/>
        <pt x="279" y="641" on="1"/>
        <pt x="299" y="636" on="0"/>
        <pt x="324" y="630" on="1"/>
        <pt x="306" y="571" on="1"/>
        <pt x="285" y="576" on="0"/>
        <pt x="267" y="580" on="1"/>
        <pt x="252" y="584" on="0"/>
        <pt x="226" y="590" on="0"/>
        <pt x="224" y="590" on="1"/>
        <pt x="185" y="590" on="0"/>
        <pt x="127" y="540" on="0"/>
        <pt x="127" y="497" on="1"/>
        <pt x="127" y="393" on="1"/>
        <pt x="140" y="401" on="0"/>
        <pt x="172" y="410" on="0"/>
        <pt x="202" y="414" on="0"/>
        <pt x="227" y="415" on="0"/>
        <pt x="233" y="415" on="1"/>
        <pt x="261" y="415" on="0"/>
        <pt x="311" y="392" on="0"/>
        <pt x="349" y="353" on="0"/>
        <pt x="370" y="301" on="0"/>
        <pt x="370" y="271" on="1"/>
        <pt x="370" y="133" on="1"/>
        <pt x="370" y="103" on="0"/>
        <pt x="349" y="52" on="0"/>
        <pt x="311" y="15" on="0"/>
        <pt x="261" y="-7" on="0"/>
        <pt x="233" y="-7" on="1"/>
      </contour>
    </TTGlyph>
    <TTGlyph name="slash" xMin="46" yMin="1" xMax="218" yMax="694">
      <contour>
        <pt x="146" y="694" on="1"/>
        <pt x="218" y="694" on="1"/>
        <pt x="118" y="1" on="1"/>
        <pt x="46" y="1" on="1"/>
      </contour>
    </TTGlyph>
    <TTGlyph name="sterling" xMin="46" yMin="0" xMax="457" yMax="703">
      <contour>
        <pt x="390" y="512" on="1"/>
        <pt x="390" y="552" on="0"/>
        <pt x="364" y="601" on="0"/>
        <pt x="327" y="628" on="0"/>
        <pt x="284" y="637" on="0"/>
        <pt x="267" y="637" on="1"/>
        <pt x="249" y="637" on="0"/>
        <pt x="208" y="627" on="0"/>
        <pt x="173" y="602" on="0"/>
        <pt x="151" y="556" on="0"/>
        <pt x="151" y="520" on="1"/>
        <pt x="151" y="385" on="1"/>
        <pt x="366" y="385" on="1"/>
        <pt x="366" y="314" on="1"/>
        <pt x="151" y="314" on="1"/>
        <pt x="151" y="66" on="1"/>
        <pt x="456" y="66" on="1"/>
        <pt x="456" y="0" on="1"/>
        <pt x="84" y="0" on="1"/>
        <pt x="84" y="314" on="1"/>
        <pt x="46" y="314" on="1"/>
        <pt x="46" y="385" on="1"/>
        <pt x="84" y="385" on="1"/>
        <pt x="84" y="518" on="1"/>
        <pt x="84" y="558" on="0"/>
        <pt x="110" y="626" on="0"/>
        <pt x="158" y="676" on="0"/>
        <pt x="226" y="703" on="0"/>
        <pt x="268" y="703" on="1"/>
        <pt x="309" y="703" on="0"/>
        <pt x="379" y="675" on="0"/>
        <pt x="429" y="624" on="0"/>
        <pt x="457" y="554" on="0"/>
        <pt x="457" y="512" on="1"/>
      </contour>
    </TTGlyph>
    <TTGlyph name="t" xMin="18" yMin="-1" xMax="255" yMax="695">
      <contour>
        <pt x="101" y="439" on="1"/>
        <pt x="18" y="439" on="1"/>
        <pt x="18" y="501" on="1"/>
        <pt x="101" y="501" on="1"/>
        <pt x="101" y="695" on="1"/>
        <pt x="166" y="695" on="1"/>
        <pt x="166" y="501" on="1"/>
        <pt x="255" y="501" on="1"/>
        <pt x="255" y="439" on="1"/>
        <pt x="166" y="439" on="1"/>
        <pt x="166" y="128" on="1"/>
        <pt x="166" y="92" on="0"/>
        <pt x="202" y="65" on="0"/>
        <pt x="227" y="65" on="1"/>
        <pt x="255" y="65" on="1"/>
        <pt x="255" y="-1" on="1"/>
        <pt x="222" y="-1" on="1"/>
        <pt x="171" y="-1" on="0"/>
        <pt x="101" y="62" on="0"/>
        <pt x="101" y="133" on="1"/>
      </contour>
    </TTGlyph>
    <TTGlyph name="thorn" xMin="61" yMin="-243" xMax="365" yMax="694">
      <contour>
        <pt x="121" y="81" on="1"/>
        <pt x="123" y="79" on="0"/>
        <pt x="125" y="79" on="1"/>
        <pt x="125" y="75" on="1"/>
      </contour>
      <contour>
        <pt x="125" y="79" on="1"/>
        <pt x="151" y="65" on="0"/>
        <pt x="201" y="54" on="0"/>
        <pt x="230" y="54" on="1"/>
        <pt x="260" y="54" on="0"/>
        <pt x="303" y="99" on="0"/>
        <pt x="303" y="131" on="1"/>
        <pt x="303" y="368" on="1"/>
        <pt x="303" y="400" on="0"/>
        <pt x="260" y="446" on="0"/>
        <pt x="229" y="446" on="1"/>
        <pt x="208" y="446" on="0"/>
        <pt x="147" y="430" on="0"/>
        <pt x="125" y="415" on="1"/>
      </contour>
      <contour>
        <pt x="124" y="485" on="1"/>
        <pt x="161" y="503" on="0"/>
        <pt x="214" y="509" on="0"/>
        <pt x="229" y="509" on="1"/>
        <pt x="257" y="509" on="0"/>
        <pt x="307" y="486" on="0"/>
        <pt x="344" y="447" on="0"/>
        <pt x="365" y="395" on="0"/>
        <pt x="365" y="365" on="1"/>
        <pt x="365" y="135" on="1"/>
        <pt x="365" y="105" on="0"/>
        <pt x="344" y="53" on="0"/>
        <pt x="307" y="14" on="0"/>
        <pt x="257" y="-8" on="0"/>
        <pt x="229" y="-8" on="1"/>
        <pt x="209" y="-8" on="0"/>
        <pt x="155" y="0" on="0"/>
        <pt x="123" y="14" on="1"/>
        <pt x="123" y="-243" on="1"/>
        <pt x="61" y="-243" on="1"/>
        <pt x="62" y="694" on="1"/>
        <pt x="124" y="694" on="1"/>
      </contour>
    </TTGlyph>
    <TTGlyph name="three" xMin="43" yMin="-10" xMax="355" yMax="652">
      <contour>
        <pt x="43" y="605" on="1"/>
        <pt x="118" y="635" on="1"/>
        <pt x="118" y="634" on="1"/>
        <pt x="125" y="637" on="0"/>
        <pt x="147" y="644" on="0"/>
        <pt x="169" y="649" on="0"/>
        <pt x="189" y="652" on="0"/>
        <pt x="196" y="652" on="1"/>
        <pt x="232" y="651" on="0"/>
        <pt x="291" y="623" on="0"/>
        <pt x="332" y="574" on="0"/>
        <pt x="355" y="507" on="0"/>
        <pt x="355" y="468" on="1"/>
        <pt x="355" y="427" on="0"/>
        <pt x="331" y="366" on="0"/>
        <pt x="295" y="334" on="1"/>
        <pt x="316" y="317" on="0"/>
        <pt x="339" y="279" on="0"/>
        <pt x="351" y="239" on="0"/>
        <pt x="354" y="198" on="0"/>
        <pt x="354" y="178" on="1"/>
        <pt x="354" y="139" on="0"/>
        <pt x="329" y="71" on="0"/>
        <pt x="285" y="20" on="0"/>
        <pt x="224" y="-10" on="0"/>
        <pt x="189" y="-10" on="1"/>
        <pt x="173" y="-9" on="0"/>
        <pt x="132" y="-1" on="0"/>
        <pt x="117" y="5" on="1"/>
        <pt x="44" y="33" on="1"/>
        <pt x="62" y="99" on="1"/>
        <pt x="149" y="62" on="1"/>
        <pt x="149" y="63" on="1"/>
        <pt x="159" y="59" on="0"/>
        <pt x="179" y="54" on="0"/>
        <pt x="187" y="54" on="1"/>
        <pt x="209" y="54" on="0"/>
        <pt x="247" y="75" on="0"/>
        <pt x="275" y="111" on="0"/>
        <pt x="291" y="157" on="0"/>
        <pt x="292" y="182" on="1"/>
        <pt x="292" y="206" on="0"/>
        <pt x="280" y="251" on="0"/>
        <pt x="256" y="285" on="0"/>
        <pt x="219" y="305" on="0"/>
        <pt x="192" y="305" on="1"/>
        <pt x="130" y="305" on="1"/>
        <pt x="130" y="367" on="1"/>
        <pt x="193" y="367" on="1"/>
        <pt x="247" y="367" on="0"/>
        <pt x="291" y="428" on="0"/>
        <pt x="292" y="477" on="1"/>
        <pt x="291" y="502" on="0"/>
        <pt x="272" y="542" on="0"/>
        <pt x="244" y="570" on="0"/>
        <pt x="210" y="586" on="0"/>
        <pt x="193" y="586" on="1"/>
        <pt x="183" y="586" on="0"/>
        <pt x="156" y="581" on="0"/>
        <pt x="147" y="577" on="1"/>
        <pt x="70" y="542" on="1"/>
      </contour>
    </TTGlyph>
    <TTGlyph name="tilde" xMin="90" yMin="589" xMax="399" yMax="651">
      <contour>
        <pt x="371" y="651" on="1"/>
        <pt x="399" y="589" on="1"/>
        <pt x="121" y="589" on="1"/>
        <pt x="90" y="651" on="1"/>
      </contour>
    </TTGlyph>
    <TTGlyph name="trademark" xMin="57" yMin="376" xMax="472" yMax="695">
      <contour>
        <pt x="312" y="695" on="1"/>
        <pt x="366" y="514" on="1"/>
        <pt x="379" y="558" on="0"/>
        <pt x="409" y="651" on="0"/>
        <pt x="421" y="695" on="1"/>
        <pt x="472" y="695" on="1"/>
        <pt x="472" y="376" on="1"/>
        <pt x="435" y="376" on="1"/>
        <pt x="435" y="606" on="1"/>
        <pt x="424" y="571" on="0"/>
        <pt x="400" y="499" on="0"/>
        <pt x="390" y="466" on="1"/>
        <pt x="342" y="466" on="1"/>
        <pt x="298" y="608" on="1"/>
        <pt x="298" y="376" on="1"/>
        <pt x="262" y="376" on="1"/>
        <pt x="262" y="695" on="1"/>
      </contour>
      <contour>
        <pt x="209" y="681" on="1"/>
        <pt x="209" y="671" on="1"/>
        <pt x="139" y="671" on="1"/>
        <pt x="139" y="390" on="1"/>
        <pt x="129" y="390" on="1"/>
        <pt x="129" y="671" on="1"/>
        <pt x="57" y="671" on="1"/>
        <pt x="57" y="681" on="1"/>
      </contour>
    </TTGlyph>
    <TTGlyph name="two" xMin="31" yMin="0" xMax="348" yMax="652">
      <contour>
        <pt x="254" y="367" on="1"/>
        <pt x="269" y="389" on="0"/>
        <pt x="281" y="434" on="0"/>
        <pt x="282" y="460" on="1"/>
        <pt x="281" y="485" on="0"/>
        <pt x="266" y="530" on="0"/>
        <pt x="240" y="564" on="0"/>
        <pt x="203" y="585" on="0"/>
        <pt x="181" y="585" on="1"/>
        <pt x="176" y="585" on="0"/>
        <pt x="163" y="582" on="0"/>
        <pt x="137" y="573" on="0"/>
        <pt x="93" y="556" on="0"/>
        <pt x="58" y="541" on="1"/>
        <pt x="31" y="604" on="1"/>
        <pt x="111" y="636" on="1"/>
        <pt x="126" y="643" on="0"/>
        <pt x="168" y="651" on="0"/>
        <pt x="183" y="652" on="1"/>
        <pt x="218" y="652" on="0"/>
        <pt x="279" y="622" on="0"/>
        <pt x="323" y="571" on="0"/>
        <pt x="348" y="502" on="0"/>
        <pt x="348" y="463" on="1"/>
        <pt x="348" y="428" on="0"/>
        <pt x="334" y="369" on="0"/>
        <pt x="311" y="338" on="1"/>
        <pt x="285" y="293" on="0"/>
        <pt x="224" y="197" on="0"/>
        <pt x="198" y="158" on="1"/>
        <pt x="167" y="111" on="0"/>
        <pt x="138" y="68" on="1"/>
        <pt x="346" y="68" on="1"/>
        <pt x="346" y="0" on="1"/>
        <pt x="62" y="0" on="1"/>
        <pt x="62" y="72" on="1"/>
      </contour>
    </TTGlyph>
    <TTGlyph name="u" xMin="57" yMin="-10" xMax="394" yMax="500">
      <contour>
        <pt x="74" y="76" on="1"/>
        <pt x="61" y="102" on="0"/>
        <pt x="57" y="152" on="0"/>
        <pt x="57" y="179" on="1"/>
        <pt x="57" y="500" on="1"/>
        <pt x="121" y="500" on="1"/>
        <pt x="121" y="149" on="1"/>
        <pt x="121" y="103" on="0"/>
        <pt x="171" y="54" on="0"/>
        <pt x="201" y="54" on="1"/>
        <pt x="230" y="54" on="0"/>
        <pt x="289" y="75" on="0"/>
        <pt x="306" y="86" on="1"/>
        <pt x="306" y="500" on="1"/>
        <pt x="369" y="500" on="1"/>
        <pt x="369" y="58" on="1"/>
        <pt x="394" y="35" on="1"/>
        <pt x="349" y="-10" on="1"/>
        <pt x="319" y="20" on="1"/>
        <pt x="291" y="6" on="0"/>
        <pt x="227" y="-8" on="0"/>
        <pt x="202" y="-8" on="1"/>
        <pt x="165" y="-8" on="0"/>
        <pt x="94" y="30" on="0"/>
      </contour>
    </TTGlyph>
    <TTGlyph name="uacute" xMin="57" yMin="-10" xMax="394" yMax="731">
      <component glyphName="u" x="0" y="0" flags="0x1204"/>
      <component glyphName="acute" x="-24" y="0" flags="0x1004"/>
    </TTGlyph>
    <TTGlyph name="ucircumflex" xMin="57" yMin="-10" xMax="394" yMax="744">
      <component glyphName="u" x="0" y="0" flags="0x1204"/>
      <component glyphName="circumflex" x="18" y="0" flags="0x1004"/>
    </TTGlyph>
    <TTGlyph name="udieresis" xMin="57" yMin="-10" xMax="394" yMax="672">
      <component glyphName="u" x="0" y="0" flags="0x1204"/>
      <component glyphName="dieresis" x="-13" y="0" flags="0x1004"/>
    </TTGlyph>
    <TTGlyph name="ugrave" xMin="57" yMin="-10" xMax="394" yMax="730">
      <component glyphName="u" x="0" y="0" flags="0x1204"/>
      <component glyphName="grave" x="-17" y="0" flags="0x1004"/>
    </TTGlyph>
    <TTGlyph name="v" xMin="20" yMin="0" xMax="346" yMax="500">
      <contour>
        <pt x="282" y="500" on="1"/>
        <pt x="346" y="500" on="1"/>
        <pt x="233" y="0" on="1"/>
        <pt x="139" y="0" on="1"/>
        <pt x="20" y="500" on="1"/>
        <pt x="83" y="500" on="1"/>
        <pt x="117" y="361" on="0"/>
        <pt x="157" y="194" on="0"/>
        <pt x="168" y="150" on="1"/>
        <pt x="180" y="97" on="0"/>
        <pt x="185" y="77" on="1"/>
      </contour>
    </TTGlyph>
    <TTGlyph name="w" xMin="26" yMin="0" xMax="503" yMax="500">
      <contour>
        <pt x="312" y="499" on="1"/>
        <pt x="379" y="75" on="1"/>
        <pt x="440" y="500" on="1"/>
        <pt x="503" y="500" on="1"/>
        <pt x="423" y="0" on="1"/>
        <pt x="339" y="0" on="1"/>
        <pt x="263" y="421" on="1"/>
        <pt x="244" y="317" on="0"/>
        <pt x="208" y="103" on="0"/>
        <pt x="188" y="0" on="1"/>
        <pt x="106" y="0" on="1"/>
        <pt x="26" y="500" on="1"/>
        <pt x="88" y="500" on="1"/>
        <pt x="145" y="75" on="1"/>
        <pt x="216" y="499" on="1"/>
      </contour>
    </TTGlyph>
    <TTGlyph name="x" xMin="22" yMin="0" xMax="339" yMax="500">
      <contour>
        <pt x="177" y="214" on="1"/>
        <pt x="85" y="0" on="1"/>
        <pt x="22" y="0" on="1"/>
        <pt x="128" y="249" on="1"/>
        <pt x="22" y="500" on="1"/>
        <pt x="85" y="500" on="1"/>
        <pt x="180" y="286" on="1"/>
        <pt x="203" y="339" on="0"/>
        <pt x="248" y="447" on="0"/>
        <pt x="271" y="500" on="1"/>
        <pt x="336" y="500" on="1"/>
        <pt x="234" y="249" on="1"/>
        <pt x="260" y="189" on="0"/>
        <pt x="313" y="61" on="0"/>
        <pt x="339" y="1" on="1"/>
        <pt x="274" y="1" on="1"/>
        <pt x="181" y="214" on="1"/>
      </contour>
    </TTGlyph>
    <TTGlyph name="y" xMin="19" yMin="-243" xMax="359" yMax="500">
      <contour>
        <pt x="116" y="-243" on="1"/>
        <pt x="156" y="0" on="1"/>
        <pt x="151" y="0" on="1"/>
        <pt x="19" y="500" on="1"/>
        <pt x="83" y="500" on="1"/>
        <pt x="109" y="393" on="0"/>
        <pt x="148" y="244" on="0"/>
        <pt x="161" y="196" on="1"/>
        <pt x="176" y="141" on="0"/>
        <pt x="187" y="105" on="1"/>
        <pt x="188" y="105" on="1"/>
        <pt x="189" y="111" on="0"/>
        <pt x="202" y="163" on="0"/>
        <pt x="227" y="259" on="0"/>
        <pt x="266" y="402" on="0"/>
        <pt x="294" y="500" on="1"/>
        <pt x="359" y="500" on="1"/>
        <pt x="225" y="0" on="1"/>
        <pt x="219" y="0" on="1"/>
        <pt x="210" y="-60" on="0"/>
        <pt x="188" y="-183" on="0"/>
        <pt x="180" y="-243" on="1"/>
      </contour>
    </TTGlyph>
    <TTGlyph name="yacute" xMin="19" yMin="-243" xMax="359" yMax="731">
      <component glyphName="y" x="0" y="0" flags="0x1204"/>
      <component glyphName="acute" x="-47" y="0" flags="0x1004"/>
    </TTGlyph>
    <TTGlyph name="ydieresis" xMin="19" yMin="-243" xMax="359" yMax="672">
      <component glyphName="y" x="0" y="0" flags="0x1204"/>
      <component glyphName="dieresis" x="-39" y="0" flags="0x1004"/>
    </TTGlyph>
    <TTGlyph name="yen" xMin="38" yMin="1" xMax="449" yMax="696">
      <contour>
        <pt x="279" y="171" on="1"/>
        <pt x="279" y="1" on="1"/>
        <pt x="207" y="1" on="1"/>
        <pt x="207" y="171" on="1"/>
        <pt x="70" y="171" on="1"/>
        <pt x="70" y="247" on="1"/>
        <pt x="207" y="247" on="1"/>
        <pt x="207" y="310" on="1"/>
        <pt x="199" y="310" on="1"/>
        <pt x="176" y="361" on="1"/>
        <pt x="70" y="361" on="1"/>
        <pt x="70" y="437" on="1"/>
        <pt x="145" y="437" on="1"/>
        <pt x="119" y="499" on="0"/>
        <pt x="64" y="634" on="0"/>
        <pt x="38" y="696" on="1"/>
        <pt x="106" y="696" on="1"/>
        <pt x="239" y="382" on="1"/>
        <pt x="247" y="382" on="1"/>
        <pt x="381" y="696" on="1"/>
        <pt x="449" y="696" on="1"/>
        <pt x="342" y="437" on="1"/>
        <pt x="417" y="437" on="1"/>
        <pt x="417" y="361" on="1"/>
        <pt x="310" y="361" on="1"/>
        <pt x="290" y="310" on="1"/>
        <pt x="279" y="310" on="1"/>
        <pt x="279" y="247" on="1"/>
        <pt x="417" y="247" on="1"/>
        <pt x="417" y="171" on="1"/>
      </contour>
    </TTGlyph>
    <TTGlyph name="z" xMin="34" yMin="0" xMax="379" yMax="498">
      <contour>
        <pt x="379" y="0" on="1"/>
        <pt x="34" y="0" on="1"/>
        <pt x="34" y="60" on="1"/>
        <pt x="280" y="425" on="1"/>
        <pt x="280" y="435" on="1"/>
        <pt x="42" y="435" on="1"/>
        <pt x="42" y="498" on="1"/>
        <pt x="362" y="498" on="1"/>
        <pt x="362" y="438" on="1"/>
        <pt x="116" y="71" on="1"/>
        <pt x="116" y="63" on="1"/>
        <pt x="379" y="63" on="1"/>
      </contour>
    </TTGlyph>
    <TTGlyph name="zcaron" xMin="34" yMin="0" xMax="379" yMax="743">
      <component glyphName="z" x="0" y="0" flags="0x1204"/>
      <component glyphName="caron" x="11" y="0" flags="0x1004"/>
    </TTGlyph>
    <TTGlyph name="zero" xMin="66" yMin="-9" xMax="370" yMax="651">
      <contour>
        <pt x="233" y="56" on="1"/>
        <pt x="263" y="56" on="0"/>
        <pt x="306" y="102" on="0"/>
        <pt x="306" y="134" on="1"/>
        <pt x="306" y="511" on="1"/>
        <pt x="306" y="546" on="0"/>
        <pt x="255" y="585" on="0"/>
        <pt x="223" y="585" on="1"/>
        <pt x="204" y="585" on="0"/>
        <pt x="170" y="578" on="0"/>
        <pt x="144" y="560" on="0"/>
        <pt x="129" y="532" on="0"/>
        <pt x="129" y="511" on="1"/>
        <pt x="129" y="134" on="1"/>
        <pt x="129" y="102" on="0"/>
        <pt x="171" y="56" on="0"/>
        <pt x="202" y="56" on="1"/>
      </contour>
      <contour>
        <pt x="370" y="131" on="1"/>
        <pt x="370" y="101" on="0"/>
        <pt x="349" y="50" on="0"/>
        <pt x="311" y="13" on="0"/>
        <pt x="261" y="-9" on="0"/>
        <pt x="233" y="-9" on="1"/>
        <pt x="201" y="-9" on="1"/>
        <pt x="172" y="-9" on="0"/>
        <pt x="123" y="13" on="0"/>
        <pt x="87" y="50" on="0"/>
        <pt x="66" y="101" on="0"/>
        <pt x="66" y="131" on="1"/>
        <pt x="66" y="511" on="1"/>
        <pt x="66" y="541" on="0"/>
        <pt x="87" y="592" on="0"/>
        <pt x="124" y="629" on="0"/>
        <pt x="173" y="651" on="0"/>
        <pt x="202" y="651" on="1"/>
        <pt x="234" y="651" on="1"/>
        <pt x="262" y="651" on="0"/>
        <pt x="312" y="629" on="0"/>
        <pt x="349" y="592" on="0"/>
        <pt x="370" y="541" on="0"/>
        <pt x="370" y="511" on="1"/>
      </contour>
    </TTGlyph>
</ttFont>
